<?xml version="1.0" encoding="UTF-8" standalone="no"?>
<svg
   xmlns:dc="http://purl.org/dc/elements/1.1/"
   xmlns:cc="http://creativecommons.org/ns#"
   xmlns:rdf="http://www.w3.org/1999/02/22-rdf-syntax-ns#"
   xmlns:svg="http://www.w3.org/2000/svg"
   xmlns="http://www.w3.org/2000/svg"
   id="svg8"
   version="1.1"
   viewBox="0 0 80 68"
   height="68mm"
   width="80mm">
  <defs
     id="defs2" />
  <metadata
     id="metadata5">
    <rdf:RDF>
      <cc:Work
         rdf:about="">
        <dc:format>image/svg+xml</dc:format>
        <dc:type
           rdf:resource="http://purl.org/dc/dcmitype/StillImage" />
        <dc:title />
      </cc:Work>
    </rdf:RDF>
  </metadata>
  <g
     transform="translate(0,-228.99999)"
     id="layer1">
    <path
       d="m 8.7260159,261.72595 c 0.284372,0.78027 0.83723,1.35332 1.5307601,1.78304 0.727949,0.40445 1.458282,0.39002 2.195349,0.0417 0.105613,-0.0802 0.204773,-0.16973 0.316816,-0.24067 0.07482,-0.0474 -0.212148,0.25784 -0.204543,0.16959 0.01209,-0.14026 0.158326,-0.23385 0.220954,-0.35995 0.207561,-0.41797 0.241715,-0.81055 0.244338,-1.26761 -0.11474,-0.91534 -0.719126,-1.43387 -1.54699,-1.7235 -0.138987,-0.0219 -0.276536,-0.0566 -0.416937,-0.0655 -0.451093,-0.0287 -0.90401,0.074 -1.2978601,0.29744 -0.167066,0.0948 -0.563176,0.41734 -0.288383,0.19573 -0.313544,0.4154 -0.599346,0.88837 -0.627589,1.42619 -0.0091,0.17387 0.04021,0.34588 0.06027,0.51881 0,0 -0.01644,0.0147 -0.01644,0.0147 v 0 c -0.276413,-0.66303 -0.3328,-0.99625 0.110588,-1.61429 0.972179,-0.98997 1.4986601,-1.56179 2.9549691,-1.29614 0.854101,0.31035 1.46245,0.85709 1.592335,1.79898 0.0074,1.21609 -0.4616,1.98766 -1.518155,2.67803 -0.755847,0.32475 -1.49635,0.30699 -2.2228191,-0.10914 -0.701103,-0.44869 -1.253624,-1.03726 -1.546637,-1.83107 0,0 0.459948,-0.41633 0.459948,-0.41633 z"
       id="path817"
       style="opacity:1;fill:#374937;fill-opacity:1;stroke:none;stroke-width:0.02370077;stroke-linecap:round;stroke-linejoin:bevel;stroke-miterlimit:4;stroke-dasharray:0.02370077, 0.02370077;stroke-dashoffset:0;stroke-opacity:1;paint-order:stroke fill markers" />
    <path
       d="m 25.877878,288.23336 c 0.284371,0.78028 0.837229,1.35333 1.53076,1.78304 0.727948,0.40446 1.458281,0.39004 2.195348,0.0417 0.105614,-0.0802 0.204773,-0.16973 0.316808,-0.24067 0.07482,-0.0474 -0.21214,0.25784 -0.204534,0.1696 0.01209,-0.14027 0.158326,-0.23386 0.220954,-0.35996 0.20756,-0.41797 0.241715,-0.81055 0.244337,-1.26762 -0.11474,-0.91533 -0.719126,-1.43385 -1.54699,-1.72349 -0.138987,-0.0219 -0.276536,-0.0566 -0.416937,-0.0655 -0.451092,-0.0287 -0.90401,0.074 -1.297859,0.29743 -0.167066,0.0948 -0.563177,0.41735 -0.288384,0.19573 -0.313552,0.4154 -0.599346,0.88837 -0.627589,1.4262 -0.0091,0.17386 0.04021,0.34586 0.06027,0.5188 0,0 -0.01644,0.0147 -0.01644,0.0147 v 0 c -0.276412,-0.66303 -0.3328,-0.99625 0.110588,-1.61429 0.972179,-0.98997 1.498661,-1.56179 2.954969,-1.29614 0.854101,0.31035 1.46245,0.85709 1.592335,1.79898 0.0074,1.21608 -0.4616,1.98766 -1.518155,2.67803 -0.755846,0.32474 -1.49635,0.30699 -2.222819,-0.10913 -0.701111,-0.4487 -1.253624,-1.03727 -1.546637,-1.83107 0,0 0.459948,-0.41634 0.459948,-0.41634 z"
       id="path851"
       style="opacity:1;fill:#374937;fill-opacity:1;stroke:none;stroke-width:0.02370077;stroke-linecap:round;stroke-linejoin:bevel;stroke-miterlimit:4;stroke-dasharray:0.02370077, 0.02370077;stroke-dashoffset:0;stroke-opacity:1;paint-order:stroke fill markers" />
    <path
       style="opacity:1;fill:#374937;fill-opacity:1;stroke:none;stroke-width:0.02370077;stroke-linecap:round;stroke-linejoin:bevel;stroke-miterlimit:4;stroke-dasharray:0.02370077, 0.02370077;stroke-dashoffset:0;stroke-opacity:1;paint-order:stroke fill markers"
       id="path853"
       d="m 62.520491,248.86205 c 0.284363,0.78028 0.837221,1.35332 1.530752,1.78304 0.727948,0.40445 1.458281,0.39003 2.195348,0.0417 0.105614,-0.0802 0.204773,-0.16972 0.316816,-0.24067 0.07482,-0.0474 -0.212148,0.25784 -0.204542,0.1696 0.01209,-0.14027 0.158334,-0.23386 0.220954,-0.35996 0.20756,-0.41796 0.241715,-0.81054 0.244338,-1.26761 -0.11474,-0.91534 -0.719126,-1.43386 -1.546991,-1.72349 -0.138979,-0.0219 -0.276535,-0.0566 -0.416937,-0.0655 -0.451092,-0.0287 -0.90401,0.074 -1.297859,0.29743 -0.167058,0.0948 -0.563177,0.41735 -0.288384,0.19573 -0.313544,0.4154 -0.599338,0.88837 -0.627589,1.4262 -0.0091,0.17386 0.04021,0.34587 0.06027,0.5188 0,0 -0.01644,0.0147 -0.01644,0.0147 v 0 c -0.276412,-0.66303 -0.3328,-0.99625 0.110588,-1.61429 0.97218,-0.98997 1.498661,-1.5618 2.954969,-1.29614 0.854109,0.31035 1.46245,0.85708 1.592336,1.79898 0.0074,1.21608 -0.4616,1.98765 -1.518156,2.67803 -0.755846,0.32475 -1.49635,0.30698 -2.222818,-0.10914 -0.701104,-0.44869 -1.253624,-1.03727 -1.546637,-1.83107 0,0 0.459955,-0.41633 0.459955,-0.41633 z" />
    <path
       d="m 28.209994,291.6545 c 0.426499,0.31408 0.840378,0.64479 1.249693,0.98082 0.382347,0.31985 0.755773,0.65196 1.0767,1.03444 0.08655,0.11928 0.08891,0.22036 0.05501,0.35491 0,0 -0.0084,0.007 -0.0084,0.007 v 0 c -0.06685,-0.0875 -0.202034,-0.0358 -0.264547,-0.1445 -0.37711,-0.32435 -0.737922,-0.66711 -1.120203,-0.98558 -0.407507,-0.3368 -0.822134,-0.66494 -1.240863,-0.98766 0,0 0.25256,-0.25963 0.25256,-0.25963 z"
       id="path863"
       style="opacity:1;fill:#374937;fill-opacity:1;stroke:none;stroke-width:0.02370077;stroke-linecap:round;stroke-linejoin:bevel;stroke-miterlimit:4;stroke-dasharray:0.02370077, 0.02370077;stroke-dashoffset:0;stroke-opacity:1;paint-order:stroke fill markers" />
    <path
       d="m 27.834011,293.72411 c 0.469945,-0.42463 0.941281,-0.84775 1.410133,-1.27362 0.28174,-0.24639 0.547324,-0.51084 0.827206,-0.75921 -0.04144,0.0451 -0.08283,0.0902 -0.124237,0.13533 0,0 0.156032,-0.1134 0.156032,-0.1134 v 0 c -0.06857,0.0724 -0.137121,0.14466 -0.205685,0.217 -0.278641,0.29155 -0.582664,0.55722 -0.880059,0.8292 -0.470866,0.42669 -0.943739,0.85118 -1.413652,1.2789 0,0 0.230262,-0.3142 0.230262,-0.3142 z"
       id="path865"
       style="opacity:1;fill:#374937;fill-opacity:1;stroke:none;stroke-width:0.02370077;stroke-linecap:round;stroke-linejoin:bevel;stroke-miterlimit:4;stroke-dasharray:0.02370077, 0.02370077;stroke-dashoffset:0;stroke-opacity:1;paint-order:stroke fill markers" />
    <path
       d="m 31.330581,293.43405 c 0.335999,-0.1981 0.683878,-0.37466 1.032317,-0.54953 0.101083,-0.0166 0.211293,-0.1575 0.317556,-0.13877 0.109396,0.11889 0.120134,0.31572 0.147785,0.46851 0.04522,0.2747 0.06257,0.55291 0.074,0.83075 0.0086,0.14384 0.01447,0.27989 -0.08557,0.39101 0,0 -0.132335,0.11287 -0.132335,0.11287 v 0 c -0.13028,0.0784 -0.08498,-0.15981 -0.09699,-0.23277 -0.01052,-0.27657 -0.02417,-0.55374 -0.0694,-0.82724 -0.02574,-0.14479 -0.04506,-0.29565 -0.104643,-0.43094 -0.09774,0.0345 -0.189052,0.0862 -0.284109,0.1269 -0.348997,0.16818 -0.693769,0.34587 -1.025212,0.5468 0,0 0.226529,-0.29759 0.226529,-0.29759 z"
       id="path869"
       style="opacity:1;fill:#374937;fill-opacity:1;stroke:none;stroke-width:0.02370077;stroke-linecap:round;stroke-linejoin:bevel;stroke-miterlimit:4;stroke-dasharray:0.02370077, 0.02370077;stroke-dashoffset:0;stroke-opacity:1;paint-order:stroke fill markers" />
    <path
       d="m 68.136906,250.18554 c 0.441259,0.25396 0.869436,0.52976 1.281094,0.82918 0.347386,0.2698 0.660165,0.57991 0.988969,0.87126 0.141249,0.13859 0.304212,0.25617 0.436178,0.4042 0.0578,0.0889 -0.0786,0.11066 -0.14508,0.1477 0,0 0.0074,-0.008 0.0074,-0.008 v 0 c -0.02755,0.0755 -0.02508,0.15034 -0.108903,0.11063 -0.16552,-0.11094 -0.29714,-0.26435 -0.447573,-0.39349 -0.324126,-0.29459 -0.636074,-0.60345 -0.979612,-0.87589 -0.404317,-0.30338 -0.822742,-0.58683 -1.250146,-0.85673 0,0 0.217722,-0.22865 0.217722,-0.22865 z"
       id="path871"
       style="opacity:1;fill:#374937;fill-opacity:1;stroke:none;stroke-width:0.02370077;stroke-linecap:round;stroke-linejoin:bevel;stroke-miterlimit:4;stroke-dasharray:0.02370077, 0.02370077;stroke-dashoffset:0;stroke-opacity:1;paint-order:stroke fill markers" />
    <path
       d="m 67.702694,252.36487 c 0.642874,-0.36862 1.287606,-0.73317 1.917653,-1.12356 0.374511,-0.23029 0.734708,-0.48152 1.08683,-0.74435 0.07926,-0.0622 0.02491,0.0124 0.0025,0.05 0,0 -0.0066,0.009 -0.0066,0.009 v 0 c -0.06191,0.0747 -0.121803,0.15302 -0.198681,0.21382 -0.344582,0.27733 -0.720935,0.51127 -1.094015,0.74769 -0.632777,0.38798 -1.279737,0.75108 -1.920276,1.1259 0,0 0.212904,-0.27801 0.212904,-0.27801 z"
       id="path873"
       style="opacity:1;fill:#374937;fill-opacity:1;stroke:none;stroke-width:0.02370077;stroke-linecap:round;stroke-linejoin:bevel;stroke-miterlimit:4;stroke-dasharray:0.02370077, 0.02370077;stroke-dashoffset:0;stroke-opacity:1;paint-order:stroke fill markers" />
    <path
       d="m 71.91585,251.58305 c 0.370244,-0.20393 0.777125,-0.30626 1.190412,-0.37641 0.300989,-0.0498 0.604896,-0.0463 0.905835,-0.003 0.155226,0.0257 0.269366,0.0738 0.269424,0.245 -0.205135,0.46704 -0.721478,0.77757 -1.139098,1.04526 -0.476211,0.29978 -0.969187,0.5715 -1.465903,0.83541 -0.165578,0.0846 -0.328262,0.1752 -0.495764,0.25601 0.01702,-0.0119 -0.02467,0.013 -0.01965,0.008 0.413911,-0.41775 0.255232,-0.30713 0.765869,-0.3039 0.481974,-0.003 0.963735,0.0113 1.445397,0.0266 0.103805,0.0287 0.475693,-0.0229 0.559164,0.0607 0.01291,0.0129 0.0085,0.0354 0.01274,0.0532 -0.01118,0.0302 -0.02236,0.0603 -0.03355,0.0905 0,0 -0.0074,0.008 -0.0074,0.008 v 0 c -0.03305,0.0202 -0.06611,0.0403 -0.09913,0.0604 -0.22102,0.0937 -0.467882,0.0447 -0.701514,0.0409 -0.479673,-0.0187 -0.959526,-0.0335 -1.439642,-0.0315 -0.170939,-8.2e-4 -0.930625,0.0781 -0.229736,-0.33765 0.164888,-0.0849 0.330663,-0.1682 0.494234,-0.25569 0.496544,-0.2628 0.98818,-0.53565 1.462607,-0.83696 0.184932,-0.12065 0.273707,-0.17301 0.445328,-0.30547 0.05756,-0.0444 0.156607,-0.21114 0.167855,-0.1393 0.01225,0.0779 -0.103599,0.11945 -0.162807,0.17149 -0.05427,0.0477 0.168925,-0.18168 0.122617,-0.1786 0.02845,-0.15072 -0.0694,-0.19429 -0.204156,-0.22541 -0.288507,-0.0541 -0.582655,-0.0585 -0.873538,-0.0162 -0.407235,0.0668 -0.806848,0.1696 -1.171419,0.36976 0,0 0.201986,-0.26093 0.201986,-0.26093 z"
       id="path875"
       style="opacity:1;fill:#374937;fill-opacity:1;stroke:none;stroke-width:0.02370077;stroke-linecap:round;stroke-linejoin:bevel;stroke-miterlimit:4;stroke-dasharray:0.02370077, 0.02370077;stroke-dashoffset:0;stroke-opacity:1;paint-order:stroke fill markers" />
    <path
       d="m 6.7467054,265.52615 c 0.2082426,0.47482 0.4726013,0.92255 0.7256871,1.37433 0.1459679,0.25527 0.2884414,0.51274 0.4119874,0.77973 0.132064,0.14091 -0.104684,0.47254 -0.268815,0.20628 0,0 0.0074,-0.008 0.0074,-0.008 v 0 c 0.04366,-0.006 0.128808,-0.0614 0.131061,-0.0174 0.02113,0.41172 -0.1511395,0.20224 -0.1869634,0.11629 -0.1347693,-0.26048 -0.2590555,-0.52637 -0.4103098,-0.77817 -0.2511704,-0.45381 -0.5134243,-0.90288 -0.7315088,-1.3739 0,0 0.3214452,-0.29901 0.3214452,-0.29901 z"
       id="path877"
       style="opacity:1;fill:#374937;fill-opacity:1;stroke:none;stroke-width:0.02370077;stroke-linecap:round;stroke-linejoin:bevel;stroke-miterlimit:4;stroke-dasharray:0.02370077, 0.02370077;stroke-dashoffset:0;stroke-opacity:1;paint-order:stroke fill markers" />
    <path
       d="m 5.3619217,267.80072 c 0.396793,-0.37853 0.8422201,-0.69907 1.2960996,-1.0046 0.3250876,-0.21584 0.6568594,-0.42123 0.9824814,-0.63626 0.020062,-0.0328 0.1462142,-0.0829 0.1469222,-0.0831 -0.04457,0.0584 -0.01291,0.0154 -0.087509,0.13434 0,0 -0.0074,0.008 -0.0074,0.008 v 0 c -0.091052,0.1068 -0.056651,0.0647 -0.1050381,0.12459 -0.056486,0.0621 -0.1317847,0.1028 -0.1999628,0.15035 -0.3240101,0.21117 -0.6540968,0.41286 -0.9755584,0.62796 -0.4515937,0.30452 -0.8941266,0.62481 -1.2870634,1.00392 0,0 0.2373572,-0.32507 0.2373572,-0.32507 z"
       id="path879"
       style="opacity:1;fill:#374937;fill-opacity:1;stroke:none;stroke-width:0.02370077;stroke-linecap:round;stroke-linejoin:bevel;stroke-miterlimit:4;stroke-dasharray:0.02370077, 0.02370077;stroke-dashoffset:0;stroke-opacity:1;paint-order:stroke fill markers" />
    <path
       d="m 8.4010849,267.37953 c 0.322407,-0.13283 0.644765,-0.29603 1.000875,-0.28652 0.182787,0.0355 0.256276,0.16883 0.254245,0.34325 -0.0033,0.0544 -0.01661,0.10648 -0.03634,0.15682 -0.03116,0.008 0.0025,0.0156 0.03856,0.0316 0.18083,0.0761 0.339164,0.1915 0.4850421,0.32091 0.109568,0.11921 0.268971,0.2531 0.212863,0.42929 -0.3623831,0.39697 -0.4222161,0.39498 -0.8978921,0.44627 -0.205102,0.0172 -0.411215,0.0289 -0.617073,0.0229 -0.113441,3.6e-4 -0.207313,-0.0475 -0.319348,-0.0604 0,0 0.0066,-0.009 0.0066,-0.009 v 0 c 0.184456,-0.0751 0.359901,-0.17754 0.555514,-0.21988 0.208949,-0.032 0.42016,-0.0232 0.630516,-0.041 0.155851,-0.0155 0.3195541,-0.0293 0.4662951,-0.0891 0.02828,-0.0115 0.09902,-0.0669 0.0814,-0.042 -0.06142,0.0869 -0.144792,0.15602 -0.217196,0.23404 0.10105,-0.14845 -0.07778,-0.29447 -0.1710211,-0.39983 -0.141619,-0.12885 -0.297815,-0.24053 -0.476458,-0.31271 -0.03667,-0.0168 -0.08733,-0.0409 -0.08972,-0.0717 0.02656,-0.0419 0.03651,-0.0916 0.04448,-0.14017 0.01381,-0.1559 -0.03494,-0.27521 -0.204238,-0.30479 -0.345216,-0.01 -0.660059,0.14603 -0.971539,0.27747 0,0 0.224071,-0.28601 0.224071,-0.28601 z"
       id="path881"
       style="opacity:1;fill:#374937;fill-opacity:1;stroke:none;stroke-width:0.02370077;stroke-linecap:round;stroke-linejoin:bevel;stroke-miterlimit:4;stroke-dasharray:0.02370077, 0.02370077;stroke-dashoffset:0;stroke-opacity:1;paint-order:stroke fill markers" />
    <path
       id="path950"
       d="M 13.553653,261.40447 62.060509,249.27839"
       style="fill:none;stroke:#000000;stroke-width:0.26458332px;stroke-linecap:butt;stroke-linejoin:miter;stroke-opacity:1" />
    <path
       id="path958"
       d="M 63.624381,251.08839 30.705514,287.91187"
       style="fill:none;stroke:#000000;stroke-width:0.26458332px;stroke-linecap:butt;stroke-linejoin:miter;stroke-opacity:1" />
    <path
       id="path970"
       d="M 26.15821,287.40903 12.035498,264.0825"
       style="fill:none;stroke:#000000;stroke-width:0.26458332px;stroke-linecap:butt;stroke-linejoin:miter;stroke-opacity:1" />
  </g>
</svg>
