<?xml version="1.0" encoding="UTF-8" standalone="no"?>
<!-- Created with Inkscape (http://www.inkscape.org/) -->

<svg
   xmlns:dc="http://purl.org/dc/elements/1.1/"
   xmlns:cc="http://creativecommons.org/ns#"
   xmlns:rdf="http://www.w3.org/1999/02/22-rdf-syntax-ns#"
   xmlns:svg="http://www.w3.org/2000/svg"
   xmlns="http://www.w3.org/2000/svg"
   xmlns:sodipodi="http://sodipodi.sourceforge.net/DTD/sodipodi-0.dtd"
   xmlns:inkscape="http://www.inkscape.org/namespaces/inkscape"
   width="80mm"
   height="68mm"
   viewBox="0 0 80 68"
   version="1.1"
   id="svg8"
   inkscape:version="0.92.4 (5da689c313, 2019-01-14)"
   sodipodi:docname="combination3.svg">
  <defs
     id="defs2">
    <inkscape:path-effect
       effect="spiro"
       id="path-effect972"
       is_visible="true" />
    <inkscape:path-effect
       effect="spiro"
       id="path-effect968"
       is_visible="true" />
    <inkscape:path-effect
       effect="spiro"
       id="path-effect964"
       is_visible="true" />
    <inkscape:path-effect
       effect="spiro"
       id="path-effect960"
       is_visible="true" />
    <inkscape:path-effect
       effect="spiro"
       id="path-effect956"
       is_visible="true" />
    <inkscape:path-effect
       effect="spiro"
       id="path-effect952"
       is_visible="true" />
  </defs>
  <sodipodi:namedview
     id="base"
     pagecolor="#ffffff"
     bordercolor="#666666"
     borderopacity="1.0"
     inkscape:pageopacity="0.0"
     inkscape:pageshadow="2"
     inkscape:zoom="2.8"
     inkscape:cx="227.43839"
     inkscape:cy="129.93411"
     inkscape:document-units="mm"
     inkscape:current-layer="layer1"
     showgrid="false"
     inkscape:window-width="1920"
     inkscape:window-height="1019"
     inkscape:window-x="1920"
     inkscape:window-y="0"
     inkscape:window-maximized="1" />
  <metadata
     id="metadata5">
    <rdf:RDF>
      <cc:Work
         rdf:about="">
        <dc:format>image/svg+xml</dc:format>
        <dc:type
           rdf:resource="http://purl.org/dc/dcmitype/StillImage" />
        <dc:title></dc:title>
      </cc:Work>
    </rdf:RDF>
  </metadata>
  <g
     inkscape:label="Layer 1"
     inkscape:groupmode="layer"
     id="layer1"
     transform="translate(0,-228.99999)">
    <path
       style="opacity:1;fill:#374937;fill-opacity:1;stroke:none;stroke-width:0.02370077;stroke-linecap:round;stroke-linejoin:bevel;stroke-miterlimit:4;stroke-dasharray:0.02370077, 0.02370077;stroke-dashoffset:0;stroke-opacity:1;paint-order:stroke fill markers"
       id="path817"
       d="m 8.7260159,261.72595 c 0.284372,0.78027 0.83723,1.35332 1.5307601,1.78304 0.727949,0.40445 1.458282,0.39002 2.195349,0.0417 0.105613,-0.0802 0.204773,-0.16973 0.316816,-0.24067 0.07482,-0.0474 -0.212148,0.25784 -0.204543,0.16959 0.01209,-0.14026 0.158326,-0.23385 0.220954,-0.35995 0.207561,-0.41797 0.241715,-0.81055 0.244338,-1.26761 -0.11474,-0.91534 -0.719126,-1.43387 -1.54699,-1.7235 -0.138987,-0.0219 -0.276536,-0.0566 -0.416937,-0.0655 -0.451093,-0.0287 -0.90401,0.074 -1.2978601,0.29744 -0.167066,0.0948 -0.563176,0.41734 -0.288383,0.19573 -0.313544,0.4154 -0.599346,0.88837 -0.627589,1.42619 -0.0091,0.17387 0.04021,0.34588 0.06027,0.51881 0,0 -0.01644,0.0147 -0.01644,0.0147 v 0 c -0.276413,-0.66303 -0.3328,-0.99625 0.110588,-1.61429 0.972179,-0.98997 1.4986601,-1.56179 2.9549691,-1.29614 0.854101,0.31035 1.46245,0.85709 1.592335,1.79898 0.0074,1.21609 -0.4616,1.98766 -1.518155,2.67803 -0.755847,0.32475 -1.49635,0.30699 -2.2228191,-0.10914 -0.701103,-0.44869 -1.253624,-1.03726 -1.546637,-1.83107 0,0 0.459948,-0.41633 0.459948,-0.41633 z"
       inkscape:connector-curvature="0" />
    <path
       inkscape:connector-curvature="0"
       d="m 25.488065,241.06576 c 0.284372,0.78026 0.837221,1.35331 1.530752,1.78303 0.727957,0.40446 1.458282,0.39003 2.195357,0.0417 0.105605,-0.0803 0.204764,-0.16973 0.316808,-0.24067 0.07482,-0.0474 -0.21214,0.25783 -0.204543,0.16959 0.01209,-0.14027 0.158334,-0.23386 0.220954,-0.35995 0.207568,-0.41797 0.241715,-0.81055 0.244338,-1.26761 -0.114732,-0.91534 -0.719126,-1.43387 -1.546991,-1.72351 -0.138979,-0.0219 -0.276535,-0.0566 -0.416929,-0.0655 -0.4511,-0.0287 -0.904017,0.074 -1.297867,0.29744 -0.167058,0.0948 -0.563177,0.41735 -0.288376,0.19573 -0.313552,0.4154 -0.599345,0.88837 -0.627597,1.4262 -0.0091,0.17385 0.04021,0.34587 0.06027,0.5188 0,0 -0.01645,0.0147 -0.01645,0.0147 v 0 c -0.276404,-0.66303 -0.332791,-0.99624 0.110588,-1.61428 0.97218,-0.98998 1.498669,-1.5618 2.954969,-1.29614 0.854109,0.31034 1.462459,0.85707 1.592344,1.79897 0.0074,1.21608 -0.4616,1.98766 -1.518164,2.67803 -0.755846,0.32475 -1.496341,0.30698 -2.22281,-0.10913 -0.701112,-0.44869 -1.253624,-1.03728 -1.546645,-1.83108 0,0 0.459955,-0.41633 0.459955,-0.41633 z"
       id="path849"
       style="opacity:1;fill:#374937;fill-opacity:1;stroke:none;stroke-width:0.02370077;stroke-linecap:round;stroke-linejoin:bevel;stroke-miterlimit:4;stroke-dasharray:0.02370077, 0.02370077;stroke-dashoffset:0;stroke-opacity:1;paint-order:stroke fill markers" />
    <path
       style="opacity:1;fill:#374937;fill-opacity:1;stroke:none;stroke-width:0.02370077;stroke-linecap:round;stroke-linejoin:bevel;stroke-miterlimit:4;stroke-dasharray:0.02370077, 0.02370077;stroke-dashoffset:0;stroke-opacity:1;paint-order:stroke fill markers"
       id="path851"
       d="m 25.877878,288.23336 c 0.284371,0.78028 0.837229,1.35333 1.53076,1.78304 0.727948,0.40446 1.458281,0.39004 2.195348,0.0417 0.105614,-0.0802 0.204773,-0.16973 0.316808,-0.24067 0.07482,-0.0474 -0.21214,0.25784 -0.204534,0.1696 0.01209,-0.14027 0.158326,-0.23386 0.220954,-0.35996 0.20756,-0.41797 0.241715,-0.81055 0.244337,-1.26762 -0.11474,-0.91533 -0.719126,-1.43385 -1.54699,-1.72349 -0.138987,-0.0219 -0.276536,-0.0566 -0.416937,-0.0655 -0.451092,-0.0287 -0.90401,0.074 -1.297859,0.29743 -0.167066,0.0948 -0.563177,0.41735 -0.288384,0.19573 -0.313552,0.4154 -0.599346,0.88837 -0.627589,1.4262 -0.0091,0.17386 0.04021,0.34586 0.06027,0.5188 0,0 -0.01644,0.0147 -0.01644,0.0147 v 0 c -0.276412,-0.66303 -0.3328,-0.99625 0.110588,-1.61429 0.972179,-0.98997 1.498661,-1.56179 2.954969,-1.29614 0.854101,0.31035 1.46245,0.85709 1.592335,1.79898 0.0074,1.21608 -0.4616,1.98766 -1.518155,2.67803 -0.755846,0.32474 -1.49635,0.30699 -2.222819,-0.10913 -0.701111,-0.4487 -1.253624,-1.03727 -1.546637,-1.83107 0,0 0.459948,-0.41634 0.459948,-0.41634 z"
       inkscape:connector-curvature="0" />
    <path
       inkscape:connector-curvature="0"
       d="m 62.520491,248.86205 c 0.284363,0.78028 0.837221,1.35332 1.530752,1.78304 0.727948,0.40445 1.458281,0.39003 2.195348,0.0417 0.105614,-0.0802 0.204773,-0.16972 0.316816,-0.24067 0.07482,-0.0474 -0.212148,0.25784 -0.204542,0.1696 0.01209,-0.14027 0.158334,-0.23386 0.220954,-0.35996 0.20756,-0.41796 0.241715,-0.81054 0.244338,-1.26761 -0.11474,-0.91534 -0.719126,-1.43386 -1.546991,-1.72349 -0.138979,-0.0219 -0.276535,-0.0566 -0.416937,-0.0655 -0.451092,-0.0287 -0.90401,0.074 -1.297859,0.29743 -0.167058,0.0948 -0.563177,0.41735 -0.288384,0.19573 -0.313544,0.4154 -0.599338,0.88837 -0.627589,1.4262 -0.0091,0.17386 0.04021,0.34587 0.06027,0.5188 0,0 -0.01644,0.0147 -0.01644,0.0147 v 0 c -0.276412,-0.66303 -0.3328,-0.99625 0.110588,-1.61429 0.97218,-0.98997 1.498661,-1.5618 2.954969,-1.29614 0.854109,0.31035 1.46245,0.85708 1.592336,1.79898 0.0074,1.21608 -0.4616,1.98765 -1.518156,2.67803 -0.755846,0.32475 -1.49635,0.30698 -2.222818,-0.10914 -0.701104,-0.44869 -1.253624,-1.03727 -1.546637,-1.83107 0,0 0.459955,-0.41633 0.459955,-0.41633 z"
       id="path853"
       style="opacity:1;fill:#374937;fill-opacity:1;stroke:none;stroke-width:0.02370077;stroke-linecap:round;stroke-linejoin:bevel;stroke-miterlimit:4;stroke-dasharray:0.02370077, 0.02370077;stroke-dashoffset:0;stroke-opacity:1;paint-order:stroke fill markers" />
    <path
       style="opacity:1;fill:#374937;fill-opacity:1;stroke:none;stroke-width:0.02370077;stroke-linecap:round;stroke-linejoin:bevel;stroke-miterlimit:4;stroke-dasharray:0.02370077, 0.02370077;stroke-dashoffset:0;stroke-opacity:1;paint-order:stroke fill markers"
       id="path855"
       d="m 65.639007,263.67503 c 0.284371,0.78026 0.837221,1.35331 1.530752,1.78303 0.727948,0.40445 1.458281,0.39003 2.195356,0.0417 0.105606,-0.0802 0.204765,-0.16972 0.316808,-0.24067 0.07482,-0.0474 -0.21214,0.25784 -0.204542,0.1696 0.01209,-0.14027 0.158334,-0.23386 0.220954,-0.35996 0.207568,-0.41796 0.241715,-0.81054 0.244337,-1.26761 -0.114732,-0.91534 -0.719126,-1.43386 -1.54699,-1.7235 -0.138979,-0.0219 -0.276536,-0.0566 -0.416929,-0.0655 -0.4511,-0.0287 -0.904018,0.074 -1.297867,0.29744 -0.167058,0.0948 -0.563177,0.41735 -0.288376,0.19573 -0.313552,0.4154 -0.599346,0.88837 -0.627597,1.4262 -0.0091,0.17385 0.04021,0.34587 0.06027,0.5188 0,0 -0.01644,0.0147 -0.01644,0.0147 v 0 c -0.276404,-0.66303 -0.3328,-0.99624 0.110588,-1.61428 0.972179,-0.98998 1.49866,-1.5618 2.954969,-1.29614 0.854109,0.31034 1.462458,0.85707 1.592344,1.79897 0.0074,1.21608 -0.4616,1.98766 -1.518164,2.67803 -0.755846,0.32475 -1.496342,0.30698 -2.22281,-0.10913 -0.701112,-0.44869 -1.253624,-1.03728 -1.546646,-1.83108 0,0 0.459956,-0.41633 0.459956,-0.41633 z"
       inkscape:connector-curvature="0" />
    <path
       inkscape:connector-curvature="0"
       d="m 31.335293,269.52224 c 0.284363,0.78028 0.837221,1.35333 1.530751,1.78304 0.727949,0.40446 1.458282,0.39004 2.195349,0.0417 0.105613,-0.0802 0.204773,-0.16973 0.316816,-0.24067 0.07482,-0.0474 -0.212148,0.25784 -0.204543,0.1696 0.01209,-0.14027 0.158334,-0.23386 0.220954,-0.35996 0.20756,-0.41797 0.241715,-0.81055 0.244338,-1.26762 -0.11474,-0.91533 -0.719126,-1.43385 -1.54699,-1.72349 -0.138988,-0.0219 -0.276536,-0.0566 -0.416938,-0.0655 -0.451092,-0.0287 -0.904009,0.074 -1.297859,0.29744 -0.167057,0.0948 -0.563176,0.41735 -0.288384,0.19573 -0.313543,0.4154 -0.599337,0.88837 -0.627588,1.4262 -0.0091,0.17386 0.04021,0.34586 0.06027,0.5188 0,0 -0.01644,0.0147 -0.01644,0.0147 v 0 c -0.276413,-0.66303 -0.3328,-0.99625 0.110588,-1.61429 0.972179,-0.98997 1.49866,-1.56179 2.954968,-1.29614 0.85411,0.31035 1.462451,0.85708 1.592336,1.79898 0.0074,1.21608 -0.4616,1.98766 -1.518155,2.67803 -0.755847,0.32474 -1.49635,0.30698 -2.222819,-0.10913 -0.701103,-0.4487 -1.253624,-1.03728 -1.546637,-1.83108 0,0 0.459956,-0.41633 0.459956,-0.41633 z"
       id="path857"
       style="opacity:1;fill:#374937;fill-opacity:1;stroke:none;stroke-width:0.02370077;stroke-linecap:round;stroke-linejoin:bevel;stroke-miterlimit:4;stroke-dasharray:0.02370077, 0.02370077;stroke-dashoffset:0;stroke-opacity:1;paint-order:stroke fill markers" />
    <path
       style="opacity:1;fill:#374937;fill-opacity:1;stroke:none;stroke-width:0.02370077;stroke-linecap:round;stroke-linejoin:bevel;stroke-miterlimit:4;stroke-dasharray:0.02370077, 0.02370077;stroke-dashoffset:0;stroke-opacity:1;paint-order:stroke fill markers"
       id="path859"
       d="m 48.876958,279.26762 c 0.284372,0.78027 0.837229,1.35332 1.53076,1.78304 0.727949,0.40446 1.458282,0.39003 2.195348,0.0417 0.105614,-0.0803 0.204773,-0.16973 0.316817,-0.24067 0.07482,-0.0474 -0.212148,0.25783 -0.204543,0.16959 0.01209,-0.14027 0.158326,-0.23387 0.220954,-0.35996 0.20756,-0.41797 0.241715,-0.81054 0.244338,-1.26761 -0.11474,-0.91533 -0.719126,-1.43386 -1.546991,-1.7235 -0.138987,-0.0219 -0.276535,-0.0566 -0.416937,-0.0655 -0.451092,-0.0287 -0.904009,0.074 -1.297859,0.29744 -0.167066,0.0948 -0.563177,0.41735 -0.288384,0.19574 -0.313552,0.41539 -0.599346,0.88837 -0.627589,1.42619 -0.0091,0.17385 0.04021,0.34587 0.06027,0.5188 0,0 -0.01636,0.0147 -0.01636,0.0147 v 0 c -0.276412,-0.66303 -0.332799,-0.99625 0.110588,-1.61429 0.97218,-0.98998 1.498661,-1.56179 2.954969,-1.29614 0.854101,0.31035 1.462451,0.85708 1.592336,1.79897 0.0074,1.21608 -0.4616,1.98767 -1.518155,2.67804 -0.755847,0.32474 -1.496351,0.30697 -2.222819,-0.10914 -0.701112,-0.44869 -1.253624,-1.03728 -1.546637,-1.83108 0,0 0.459947,-0.41632 0.459947,-0.41632 z"
       inkscape:connector-curvature="0" />
    <path
       inkscape:connector-curvature="0"
       d="m 46.538067,252.37038 c 0.284372,0.78028 0.837229,1.35333 1.53076,1.78304 0.727949,0.40446 1.458282,0.39004 2.195349,0.0417 0.105613,-0.0803 0.204772,-0.16972 0.316816,-0.24067 0.07482,-0.0474 -0.212148,0.25784 -0.204543,0.1696 0.01209,-0.14027 0.158326,-0.23387 0.220954,-0.35996 0.20756,-0.41797 0.241715,-0.81055 0.244338,-1.26761 -0.11474,-0.91534 -0.719126,-1.43386 -1.546991,-1.7235 -0.138987,-0.0219 -0.276535,-0.0566 -0.416937,-0.0654 -0.451092,-0.0287 -0.904009,0.074 -1.297859,0.29743 -0.167066,0.0948 -0.563176,0.41735 -0.288384,0.19573 -0.313543,0.4154 -0.599346,0.88837 -0.627589,1.4262 -0.0091,0.17386 0.04021,0.34587 0.06027,0.5188 0,0 -0.01644,0.0147 -0.01644,0.0147 v 0 c -0.276412,-0.66303 -0.3328,-0.99624 0.110588,-1.61428 0.97218,-0.98998 1.498661,-1.5618 2.954969,-1.29614 0.854101,0.31034 1.46245,0.85708 1.592336,1.79897 0.0074,1.21609 -0.4616,1.98766 -1.518156,2.67803 -0.755846,0.32475 -1.49635,0.30699 -2.222818,-0.10913 -0.701103,-0.44869 -1.253624,-1.03727 -1.546637,-1.83107 0,0 0.459947,-0.41634 0.459947,-0.41634 z"
       id="path861"
       style="opacity:1;fill:#374937;fill-opacity:1;stroke:none;stroke-width:0.02370077;stroke-linecap:round;stroke-linejoin:bevel;stroke-miterlimit:4;stroke-dasharray:0.02370077, 0.02370077;stroke-dashoffset:0;stroke-opacity:1;paint-order:stroke fill markers" />
    <path
       style="opacity:1;fill:#374937;fill-opacity:1;stroke:none;stroke-width:0.02370077;stroke-linecap:round;stroke-linejoin:bevel;stroke-miterlimit:4;stroke-dasharray:0.02370077, 0.02370077;stroke-dashoffset:0;stroke-opacity:1;paint-order:stroke fill markers"
       id="path863"
       d="m 28.209994,291.6545 c 0.426499,0.31408 0.840378,0.64479 1.249693,0.98082 0.382347,0.31985 0.755773,0.65196 1.0767,1.03444 0.08655,0.11928 0.08891,0.22036 0.05501,0.35491 0,0 -0.0084,0.007 -0.0084,0.007 v 0 c -0.06685,-0.0875 -0.202034,-0.0358 -0.264547,-0.1445 -0.37711,-0.32435 -0.737922,-0.66711 -1.120203,-0.98558 -0.407507,-0.3368 -0.822134,-0.66494 -1.240863,-0.98766 0,0 0.25256,-0.25963 0.25256,-0.25963 z"
       inkscape:connector-curvature="0" />
    <path
       style="opacity:1;fill:#374937;fill-opacity:1;stroke:none;stroke-width:0.02370077;stroke-linecap:round;stroke-linejoin:bevel;stroke-miterlimit:4;stroke-dasharray:0.02370077, 0.02370077;stroke-dashoffset:0;stroke-opacity:1;paint-order:stroke fill markers"
       id="path865"
       d="m 27.834011,293.72411 c 0.469945,-0.42463 0.941281,-0.84775 1.410133,-1.27362 0.28174,-0.24639 0.547324,-0.51084 0.827206,-0.75921 -0.04144,0.0451 -0.08283,0.0902 -0.124237,0.13533 0,0 0.156032,-0.1134 0.156032,-0.1134 v 0 c -0.06857,0.0724 -0.137121,0.14466 -0.205685,0.217 -0.278641,0.29155 -0.582664,0.55722 -0.880059,0.8292 -0.470866,0.42669 -0.943739,0.85118 -1.413652,1.2789 0,0 0.230262,-0.3142 0.230262,-0.3142 z"
       inkscape:connector-curvature="0" />
    <path
       style="opacity:1;fill:#374937;fill-opacity:1;stroke:none;stroke-width:0.02370077;stroke-linecap:round;stroke-linejoin:bevel;stroke-miterlimit:4;stroke-dasharray:0.02370077, 0.02370077;stroke-dashoffset:0;stroke-opacity:1;paint-order:stroke fill markers"
       id="path869"
       d="m 31.330581,293.43405 c 0.335999,-0.1981 0.683878,-0.37466 1.032317,-0.54953 0.101083,-0.0166 0.211293,-0.1575 0.317556,-0.13877 0.109396,0.11889 0.120134,0.31572 0.147785,0.46851 0.04522,0.2747 0.06257,0.55291 0.074,0.83075 0.0086,0.14384 0.01447,0.27989 -0.08557,0.39101 0,0 -0.132335,0.11287 -0.132335,0.11287 v 0 c -0.13028,0.0784 -0.08498,-0.15981 -0.09699,-0.23277 -0.01052,-0.27657 -0.02417,-0.55374 -0.0694,-0.82724 -0.02574,-0.14479 -0.04506,-0.29565 -0.104643,-0.43094 -0.09774,0.0345 -0.189052,0.0862 -0.284109,0.1269 -0.348997,0.16818 -0.693769,0.34587 -1.025212,0.5468 0,0 0.226529,-0.29759 0.226529,-0.29759 z"
       inkscape:connector-curvature="0" />
    <path
       style="opacity:1;fill:#374937;fill-opacity:1;stroke:none;stroke-width:0.02370077;stroke-linecap:round;stroke-linejoin:bevel;stroke-miterlimit:4;stroke-dasharray:0.02370077, 0.02370077;stroke-dashoffset:0;stroke-opacity:1;paint-order:stroke fill markers"
       id="path871"
       d="m 68.136906,250.18554 c 0.441259,0.25396 0.869436,0.52976 1.281094,0.82918 0.347386,0.2698 0.660165,0.57991 0.988969,0.87126 0.141249,0.13859 0.304212,0.25617 0.436178,0.4042 0.0578,0.0889 -0.0786,0.11066 -0.14508,0.1477 0,0 0.0074,-0.008 0.0074,-0.008 v 0 c -0.02755,0.0755 -0.02508,0.15034 -0.108903,0.11063 -0.16552,-0.11094 -0.29714,-0.26435 -0.447573,-0.39349 -0.324126,-0.29459 -0.636074,-0.60345 -0.979612,-0.87589 -0.404317,-0.30338 -0.822742,-0.58683 -1.250146,-0.85673 0,0 0.217722,-0.22865 0.217722,-0.22865 z"
       inkscape:connector-curvature="0" />
    <path
       style="opacity:1;fill:#374937;fill-opacity:1;stroke:none;stroke-width:0.02370077;stroke-linecap:round;stroke-linejoin:bevel;stroke-miterlimit:4;stroke-dasharray:0.02370077, 0.02370077;stroke-dashoffset:0;stroke-opacity:1;paint-order:stroke fill markers"
       id="path873"
       d="m 67.702694,252.36487 c 0.642874,-0.36862 1.287606,-0.73317 1.917653,-1.12356 0.374511,-0.23029 0.734708,-0.48152 1.08683,-0.74435 0.07926,-0.0622 0.02491,0.0124 0.0025,0.05 0,0 -0.0066,0.009 -0.0066,0.009 v 0 c -0.06191,0.0747 -0.121803,0.15302 -0.198681,0.21382 -0.344582,0.27733 -0.720935,0.51127 -1.094015,0.74769 -0.632777,0.38798 -1.279737,0.75108 -1.920276,1.1259 0,0 0.212904,-0.27801 0.212904,-0.27801 z"
       inkscape:connector-curvature="0" />
    <path
       style="opacity:1;fill:#374937;fill-opacity:1;stroke:none;stroke-width:0.02370077;stroke-linecap:round;stroke-linejoin:bevel;stroke-miterlimit:4;stroke-dasharray:0.02370077, 0.02370077;stroke-dashoffset:0;stroke-opacity:1;paint-order:stroke fill markers"
       id="path875"
       d="m 71.91585,251.58305 c 0.370244,-0.20393 0.777125,-0.30626 1.190412,-0.37641 0.300989,-0.0498 0.604896,-0.0463 0.905835,-0.003 0.155226,0.0257 0.269366,0.0738 0.269424,0.245 -0.205135,0.46704 -0.721478,0.77757 -1.139098,1.04526 -0.476211,0.29978 -0.969187,0.5715 -1.465903,0.83541 -0.165578,0.0846 -0.328262,0.1752 -0.495764,0.25601 0.01702,-0.0119 -0.02467,0.013 -0.01965,0.008 0.413911,-0.41775 0.255232,-0.30713 0.765869,-0.3039 0.481974,-0.003 0.963735,0.0113 1.445397,0.0266 0.103805,0.0287 0.475693,-0.0229 0.559164,0.0607 0.01291,0.0129 0.0085,0.0354 0.01274,0.0532 -0.01118,0.0302 -0.02236,0.0603 -0.03355,0.0905 0,0 -0.0074,0.008 -0.0074,0.008 v 0 c -0.03305,0.0202 -0.06611,0.0403 -0.09913,0.0604 -0.22102,0.0937 -0.467882,0.0447 -0.701514,0.0409 -0.479673,-0.0187 -0.959526,-0.0335 -1.439642,-0.0315 -0.170939,-8.2e-4 -0.930625,0.0781 -0.229736,-0.33765 0.164888,-0.0849 0.330663,-0.1682 0.494234,-0.25569 0.496544,-0.2628 0.98818,-0.53565 1.462607,-0.83696 0.184932,-0.12065 0.273707,-0.17301 0.445328,-0.30547 0.05756,-0.0444 0.156607,-0.21114 0.167855,-0.1393 0.01225,0.0779 -0.103599,0.11945 -0.162807,0.17149 -0.05427,0.0477 0.168925,-0.18168 0.122617,-0.1786 0.02845,-0.15072 -0.0694,-0.19429 -0.204156,-0.22541 -0.288507,-0.0541 -0.582655,-0.0585 -0.873538,-0.0162 -0.407235,0.0668 -0.806848,0.1696 -1.171419,0.36976 0,0 0.201986,-0.26093 0.201986,-0.26093 z"
       inkscape:connector-curvature="0" />
    <path
       style="opacity:1;fill:#374937;fill-opacity:1;stroke:none;stroke-width:0.02370077;stroke-linecap:round;stroke-linejoin:bevel;stroke-miterlimit:4;stroke-dasharray:0.02370077, 0.02370077;stroke-dashoffset:0;stroke-opacity:1;paint-order:stroke fill markers"
       id="path877"
       d="m 6.7467054,265.52615 c 0.2082426,0.47482 0.4726013,0.92255 0.7256871,1.37433 0.1459679,0.25527 0.2884414,0.51274 0.4119874,0.77973 0.132064,0.14091 -0.104684,0.47254 -0.268815,0.20628 0,0 0.0074,-0.008 0.0074,-0.008 v 0 c 0.04366,-0.006 0.128808,-0.0614 0.131061,-0.0174 0.02113,0.41172 -0.1511395,0.20224 -0.1869634,0.11629 -0.1347693,-0.26048 -0.2590555,-0.52637 -0.4103098,-0.77817 -0.2511704,-0.45381 -0.5134243,-0.90288 -0.7315088,-1.3739 0,0 0.3214452,-0.29901 0.3214452,-0.29901 z"
       inkscape:connector-curvature="0" />
    <path
       style="opacity:1;fill:#374937;fill-opacity:1;stroke:none;stroke-width:0.02370077;stroke-linecap:round;stroke-linejoin:bevel;stroke-miterlimit:4;stroke-dasharray:0.02370077, 0.02370077;stroke-dashoffset:0;stroke-opacity:1;paint-order:stroke fill markers"
       id="path879"
       d="m 5.3619217,267.80072 c 0.396793,-0.37853 0.8422201,-0.69907 1.2960996,-1.0046 0.3250876,-0.21584 0.6568594,-0.42123 0.9824814,-0.63626 0.020062,-0.0328 0.1462142,-0.0829 0.1469222,-0.0831 -0.04457,0.0584 -0.01291,0.0154 -0.087509,0.13434 0,0 -0.0074,0.008 -0.0074,0.008 v 0 c -0.091052,0.1068 -0.056651,0.0647 -0.1050381,0.12459 -0.056486,0.0621 -0.1317847,0.1028 -0.1999628,0.15035 -0.3240101,0.21117 -0.6540968,0.41286 -0.9755584,0.62796 -0.4515937,0.30452 -0.8941266,0.62481 -1.2870634,1.00392 0,0 0.2373572,-0.32507 0.2373572,-0.32507 z"
       inkscape:connector-curvature="0" />
    <path
       style="opacity:1;fill:#374937;fill-opacity:1;stroke:none;stroke-width:0.02370077;stroke-linecap:round;stroke-linejoin:bevel;stroke-miterlimit:4;stroke-dasharray:0.02370077, 0.02370077;stroke-dashoffset:0;stroke-opacity:1;paint-order:stroke fill markers"
       id="path881"
       d="m 8.4010849,267.37953 c 0.322407,-0.13283 0.644765,-0.29603 1.000875,-0.28652 0.182787,0.0355 0.256276,0.16883 0.254245,0.34325 -0.0033,0.0544 -0.01661,0.10648 -0.03634,0.15682 -0.03116,0.008 0.0025,0.0156 0.03856,0.0316 0.18083,0.0761 0.339164,0.1915 0.4850421,0.32091 0.109568,0.11921 0.268971,0.2531 0.212863,0.42929 -0.3623831,0.39697 -0.4222161,0.39498 -0.8978921,0.44627 -0.205102,0.0172 -0.411215,0.0289 -0.617073,0.0229 -0.113441,3.6e-4 -0.207313,-0.0475 -0.319348,-0.0604 0,0 0.0066,-0.009 0.0066,-0.009 v 0 c 0.184456,-0.0751 0.359901,-0.17754 0.555514,-0.21988 0.208949,-0.032 0.42016,-0.0232 0.630516,-0.041 0.155851,-0.0155 0.3195541,-0.0293 0.4662951,-0.0891 0.02828,-0.0115 0.09902,-0.0669 0.0814,-0.042 -0.06142,0.0869 -0.144792,0.15602 -0.217196,0.23404 0.10105,-0.14845 -0.07778,-0.29447 -0.1710211,-0.39983 -0.141619,-0.12885 -0.297815,-0.24053 -0.476458,-0.31271 -0.03667,-0.0168 -0.08733,-0.0409 -0.08972,-0.0717 0.02656,-0.0419 0.03651,-0.0916 0.04448,-0.14017 0.01381,-0.1559 -0.03494,-0.27521 -0.204238,-0.30479 -0.345216,-0.01 -0.660059,0.14603 -0.971539,0.27747 0,0 0.224071,-0.28601 0.224071,-0.28601 z"
       inkscape:connector-curvature="0" />
    <path
       style="opacity:1;fill:#374937;fill-opacity:1;stroke:none;stroke-width:0.02370077;stroke-linecap:round;stroke-linejoin:bevel;stroke-miterlimit:4;stroke-dasharray:0.02370077, 0.02370077;stroke-dashoffset:0;stroke-opacity:1;paint-order:stroke fill markers"
       id="path883"
       d="m 30.006896,235.70285 c 0.434106,0.49237 0.927706,0.92824 1.417212,1.36409 0.253827,0.23604 0.534506,0.44364 0.780859,0.68778 0.100959,0.10954 -0.05871,0.15289 -0.147621,0.19667 0,0 0.0074,-0.008 0.0074,-0.008 v 0 c -0.01217,0.10082 -0.04522,0.16533 -0.145097,0.10213 -0.283943,-0.20103 -0.531241,-0.45008 -0.797483,-0.67279 -0.489654,-0.43919 -0.981758,-0.87864 -1.426741,-1.36389 0,0 0.311611,-0.30569 0.311611,-0.30569 z"
       inkscape:connector-curvature="0" />
    <path
       style="opacity:1;fill:#374937;fill-opacity:1;stroke:none;stroke-width:0.02370077;stroke-linecap:round;stroke-linejoin:bevel;stroke-miterlimit:4;stroke-dasharray:0.02370077, 0.02370077;stroke-dashoffset:0;stroke-opacity:1;paint-order:stroke fill markers"
       id="path885"
       d="m 29.170785,237.58066 c 0.660412,-0.34726 1.322863,-0.69059 1.979328,-1.04537 0.615725,-0.33321 1.224542,-0.68152 1.793343,-1.09069 0.141298,-0.0963 0.264622,-0.21851 0.405821,-0.31412 -0.0273,0.0493 -0.0084,0.0132 -0.04859,0.11203 0,0 -0.0074,0.008 -0.0074,0.008 v 0 c -0.107825,0.10243 -0.06602,0.0558 -0.1313,0.1343 -0.136191,0.14149 -0.297272,0.25583 -0.454372,0.37251 -0.566696,0.39565 -1.169586,0.73463 -1.777515,1.06232 -0.655742,0.35181 -1.316096,0.69481 -1.97553,1.03958 0,0 0.216005,-0.27892 0.216005,-0.27892 z"
       inkscape:connector-curvature="0" />
    <path
       style="opacity:1;fill:#374937;fill-opacity:1;stroke:none;stroke-width:0.02370077;stroke-linecap:round;stroke-linejoin:bevel;stroke-miterlimit:4;stroke-dasharray:0.02370077, 0.02370077;stroke-dashoffset:0;stroke-opacity:1;paint-order:stroke fill markers"
       id="path887"
       d="m 32.907426,236.57389 c -0.08527,0.26643 -0.165865,0.53426 -0.244798,0.80261 -0.01217,0.04 -0.02393,0.08 -0.03494,0.12027 0.168562,-0.0136 0.337092,-0.0275 0.505679,-0.0408 0.168086,-0.019 0.339427,-0.015 0.504643,-0.0538 0.245168,-0.16753 -0.21149,0.39789 -0.142597,0.087 0.0099,-0.0451 0.02598,-0.0885 0.03873,-0.13285 0.101091,-0.0651 0.19387,-0.1454 0.303274,-0.19529 0.01653,-0.007 0.0041,0.0361 0.0058,0.0542 0.0086,0.0894 0.0091,0.17854 0.0058,0.26818 -0.0033,0.16118 -0.04473,0.31345 -0.11058,0.45937 -0.08347,0.15471 -0.219943,0.26905 -0.345701,0.38805 0,0 -0.0089,0.007 -0.0089,0.007 v 0 c -0.01291,-0.0574 0.02056,-0.098 0.04366,-0.14939 0.05122,-0.13976 0.09369,-0.28293 0.09943,-0.43284 0.02943,-0.36029 -0.06504,-0.30483 0.303792,-0.63076 -0.02574,0.0447 -0.04687,0.0918 -0.062,0.1413 -0.04037,0.18925 -0.177081,0.38046 -0.368764,0.42804 -0.168225,0.0363 -0.34154,0.0354 -0.512092,0.0543 -0.172336,0.0144 -0.34515,0.0351 -0.517955,0.0376 -0.07934,-0.0319 -0.03092,-0.0951 -0.01513,-0.16104 0.07671,-0.26724 0.159214,-0.53275 0.239997,-0.79878 0,0 0.31259,-0.25201 0.31259,-0.25201 z"
       inkscape:connector-curvature="0" />
    <path
       style="opacity:1;fill:#374937;fill-opacity:1;stroke:none;stroke-width:0.02370077;stroke-linecap:round;stroke-linejoin:bevel;stroke-miterlimit:4;stroke-dasharray:0.02370077, 0.02370077;stroke-dashoffset:0;stroke-opacity:1;paint-order:stroke fill markers"
       id="path889"
       d="m 49.009729,255.88332 c 0.274801,0.37789 0.588057,0.72427 0.896133,1.07465 0.241987,0.2824 0.490575,0.5591 0.733721,0.84048 0.120331,0.1584 0.156837,0.17628 -0.07277,0.23621 0,0 0.0074,-0.008 0.0074,-0.008 v 0 c -0.03445,0.24488 -0.0854,0.16801 -0.215577,0.0492 -0.252165,-0.27369 -0.488207,-0.56167 -0.733244,-0.84165 -0.305198,-0.35465 -0.616185,-0.7047 -0.892581,-1.0829 0,0 0.276594,-0.26803 0.276594,-0.26803 z"
       inkscape:connector-curvature="0" />
    <path
       style="opacity:1;fill:#374937;fill-opacity:1;stroke:none;stroke-width:0.02370077;stroke-linecap:round;stroke-linejoin:bevel;stroke-miterlimit:4;stroke-dasharray:0.02370077, 0.02370077;stroke-dashoffset:0;stroke-opacity:1;paint-order:stroke fill markers"
       id="path893"
       d="m 48.06229,257.78965 c 0.61413,-0.14642 1.221393,-0.31941 1.82647,-0.49915 0.595292,-0.17796 1.18723,-0.36679 1.779069,-0.55586 0.177196,-0.0537 0.345873,-0.13007 0.517889,-0.19738 0.0564,-0.002 -0.05492,0.0986 -0.08535,0.1461 0,0 -0.0074,0.008 -0.0074,0.008 v 0 c -0.05575,0.0655 -0.09143,0.12797 -0.161072,0.16968 -0.163588,0.0829 -0.345405,0.12533 -0.516845,0.18774 -0.586042,0.17572 -1.169626,0.35962 -1.757749,0.52841 -0.602922,0.17386 -1.208213,0.33952 -1.818371,0.48633 0,0 0.223224,-0.27417 0.223224,-0.27417 z"
       inkscape:connector-curvature="0" />
    <path
       style="opacity:1;fill:#374937;fill-opacity:1;stroke:none;stroke-width:0.02370077;stroke-linecap:round;stroke-linejoin:bevel;stroke-miterlimit:4;stroke-dasharray:0.02370077, 0.02370077;stroke-dashoffset:0;stroke-opacity:1;paint-order:stroke fill markers"
       id="path897"
       d="m 51.647372,258.23769 c 0.3328,-0.0455 0.665979,-0.091 0.994873,-0.15996 0.03157,0.002 0.238878,-0.0816 0.242644,-0.0209 0,0 -0.133585,0.16712 -0.133585,0.16712 v 0 c -0.100089,0.0771 -0.220329,0.1105 -0.34242,0.13888 -0.330005,0.0709 -0.6656,0.10986 -0.999099,0.16037 0,0 0.237587,-0.2855 0.237587,-0.2855 z"
       inkscape:connector-curvature="0" />
    <path
       style="opacity:1;fill:#374937;fill-opacity:1;stroke:none;stroke-width:0.02370077;stroke-linecap:round;stroke-linejoin:bevel;stroke-miterlimit:4;stroke-dasharray:0.02370077, 0.02370077;stroke-dashoffset:0;stroke-opacity:1;paint-order:stroke fill markers"
       id="path899"
       d="m 51.975757,258.28858 c -0.307352,0.10326 -0.605849,0.23087 -0.903039,0.36 -0.06767,0.0299 -0.135649,0.0595 -0.202676,0.0908 0.104503,-0.0985 0.195744,-0.2133 0.313543,-0.29544 0.04752,-0.0331 0.625797,0.10579 0.701515,0.12492 0.218438,0.065 0.422479,0.16344 0.591156,0.31758 0.11072,0.46899 -0.666693,0.41047 -0.894011,0.40685 -0.123908,-0.0345 -0.473662,0.0378 -0.541437,-0.12215 -0.01151,-0.0271 0.0025,-0.059 0.0033,-0.0884 0,0 0.0074,-0.008 0.0074,-0.008 v 0 c 0.256129,-0.11728 0.522601,-0.10038 0.799975,-0.0972 0.159321,-0.004 0.326658,0.002 0.484375,-0.0262 0.02828,-0.005 0.09804,-0.0487 0.08253,-0.0245 -0.310411,0.4829 -0.281864,0.39575 -0.243861,0.26159 -0.15086,-0.1617 -0.337314,-0.26843 -0.551156,-0.32835 -0.15664,-0.0404 -0.311405,-0.0771 -0.472042,-0.0981 -0.148368,-0.0194 -0.22726,-0.0169 -0.225468,-0.0233 0.03256,-0.11593 0.123884,-0.20653 0.185829,-0.3098 0.06775,-0.0323 0.136784,-0.0617 0.205562,-0.0918 0.298876,-0.12822 0.599206,-0.25421 0.907274,-0.35887 0,0 -0.249123,0.31047 -0.249123,0.31047 z"
       inkscape:connector-curvature="0" />
    <path
       style="opacity:1;fill:#374937;fill-opacity:1;stroke:none;stroke-width:0.02370077;stroke-linecap:round;stroke-linejoin:bevel;stroke-miterlimit:4;stroke-dasharray:0.02370077, 0.02370077;stroke-dashoffset:0;stroke-opacity:1;paint-order:stroke fill markers"
       id="path905"
       d="m 70.095087,266.6501 c 0.108129,0.32411 0.235597,0.64163 0.37803,0.95212 0.02006,0.0698 0.09988,0.15552 0.0754,0.23383 -0.04489,0.0483 -0.07926,0.10114 -0.123472,0.15159 0,0 -0.0086,0.007 -0.0086,0.007 v 0 c -0.04473,0.0235 -0.07951,0.0534 -0.120882,0.0815 -0.07581,-0.0179 -0.09534,-0.12767 -0.130625,-0.18734 -0.138897,-0.31409 -0.267738,-0.63305 -0.37641,-0.95896 0,0 0.306472,-0.27971 0.306472,-0.27971 z"
       inkscape:connector-curvature="0" />
    <path
       style="opacity:1;fill:#374937;fill-opacity:1;stroke:none;stroke-width:0.02370077;stroke-linecap:round;stroke-linejoin:bevel;stroke-miterlimit:4;stroke-dasharray:0.02370077, 0.02370077;stroke-dashoffset:0;stroke-opacity:1;paint-order:stroke fill markers"
       id="path907"
       d="m 68.953629,267.90873 c 0.501897,-0.25463 1.005044,-0.50668 1.507508,-0.76016 0.347419,-0.17164 0.686764,-0.35787 1.012386,-0.56786 0.11058,-0.0684 0.181183,-0.17295 0.30542,-0.0983 0,0 -0.0066,0.009 -0.0066,0.009 v 0 c -0.194487,0.10668 -0.34168,0.26495 -0.525108,0.38876 -0.326058,0.21783 -0.671955,0.40148 -1.023387,0.575 -0.501239,0.25134 -1.00344,0.50075 -1.502739,0.75594 0,0 0.232901,-0.30188 0.232901,-0.30188 z"
       inkscape:connector-curvature="0" />
    <path
       style="opacity:1;fill:#374937;fill-opacity:1;stroke:none;stroke-width:0.02370077;stroke-linecap:round;stroke-linejoin:bevel;stroke-miterlimit:4;stroke-dasharray:0.02370077, 0.02370077;stroke-dashoffset:0;stroke-opacity:1;paint-order:stroke fill markers"
       id="path909"
       d="m 72.407897,267.91893 c -0.384863,-0.0185 -0.76536,0.0262 -1.132199,0.14236 -0.137861,0.0491 -0.271175,0.11212 -0.38913,0.19965 -0.03346,0.0247 -0.123629,0.11125 -0.09545,0.0806 0.311537,-0.33896 0.193829,-0.19021 0.124204,-0.0968 -0.06134,0.10881 -0.128332,0.24085 -0.08509,0.36686 0.06857,0.11021 0.209706,0.14155 0.328968,0.16431 0.132664,0.0196 0.27411,0.022 0.401258,-0.0252 0.134333,-0.0642 0.396505,-0.3543 -0.06487,0.10119 0.02384,-0.0681 0.05953,-0.0139 0.04226,-0.0249 -0.0726,-0.0317 -0.145796,-0.062 -0.220255,-0.0894 -0.126383,-0.0476 -0.257346,-0.0784 -0.390273,-0.10049 -0.15137,-0.0286 -0.305741,-0.0162 -0.457259,0.004 -0.03231,-7.2e-4 -0.104685,0.0349 -0.06512,-0.019 0,0 0.170017,-0.21272 0.170017,-0.21272 v 0 c 0.03897,-0.0394 0.0786,-0.0529 0.134811,-0.0563 0.15553,-0.0189 0.312639,-0.0312 0.467627,7.3e-4 0.135386,0.0232 0.2699,0.0534 0.398865,0.10154 0.07614,0.0282 0.150218,0.0608 0.224678,0.093 0.0532,0.0394 0.04177,0.0322 0.0016,0.0778 -0.134679,0.13662 -0.281412,0.34143 -0.477198,0.41679 -0.133618,0.0347 -0.274414,0.0311 -0.409661,0.007 -0.131735,-0.0277 -0.280852,-0.0667 -0.357326,-0.18727 -0.05961,-0.1313 0,-0.27393 0.0615,-0.39522 0.217665,-0.32647 0.520224,-0.56756 0.887195,-0.69393 0.371921,-0.11172 0.756397,-0.15393 1.144795,-0.13828 0,0 -0.244288,0.28423 -0.244288,0.28423 z"
       inkscape:connector-curvature="0" />
    <path
       style="opacity:1;fill:#374937;fill-opacity:1;stroke:none;stroke-width:0.02370077;stroke-linecap:round;stroke-linejoin:bevel;stroke-miterlimit:4;stroke-dasharray:0.02370077, 0.02370077;stroke-dashoffset:0;stroke-opacity:1;paint-order:stroke fill markers"
       id="path917"
       d="m 46.057268,274.194 c 0.363206,0.37988 0.730366,0.75599 1.089411,1.13985 0.284364,0.30387 0.574038,0.60211 0.889268,0.87413 0.04169,0.0546 0.223338,0.12445 0.222697,0.19184 -0.04169,0.021 -0.0834,0.0419 -0.125092,0.063 0,0 0.0083,-0.007 0.0083,-0.007 v 0 c -0.03486,0.0726 -0.06981,0.14521 -0.104676,0.2178 -0.120216,0.0412 -0.231191,-0.0793 -0.319776,-0.14278 -0.309827,-0.27994 -0.602668,-0.57674 -0.886809,-0.88273 -0.358026,-0.38431 -0.724569,-0.76063 -1.083655,-1.14397 0,0 0.310345,-0.30981 0.310345,-0.30981 z"
       inkscape:connector-curvature="0" />
    <path
       style="opacity:1;fill:#374937;fill-opacity:1;stroke:none;stroke-width:0.02370077;stroke-linecap:round;stroke-linejoin:bevel;stroke-miterlimit:4;stroke-dasharray:0.02370077, 0.02370077;stroke-dashoffset:0;stroke-opacity:1;paint-order:stroke fill markers"
       id="path919"
       d="m 46.233075,276.45372 c 0.413837,-0.34633 0.843584,-0.67291 1.260283,-1.01567 0.258891,-0.21856 0.51183,-0.44433 0.752985,-0.68238 -0.437945,0.4524 -0.171226,0.15903 -0.05846,0.0617 0.04859,-0.0383 0.02195,-0.0177 0.08008,-0.0618 0,0 0.09858,-0.074 0.09858,-0.074 v 0 c 0.05106,-0.036 0.02828,-0.021 0.06767,-0.046 -0.0842,0.18901 -0.365056,0.2526 -0.427857,0.44976 -0.24007,0.23376 -0.491824,0.45519 -0.748611,0.67036 -0.415161,0.33804 -0.841817,0.66178 -1.252168,1.00577 0,0 0.227499,-0.3077 0.227499,-0.3077 z"
       inkscape:connector-curvature="0" />
    <path
       style="opacity:1;fill:#374937;fill-opacity:1;stroke:none;stroke-width:0.02370077;stroke-linecap:round;stroke-linejoin:bevel;stroke-miterlimit:4;stroke-dasharray:0.02370077, 0.02370077;stroke-dashoffset:0;stroke-opacity:1;paint-order:stroke fill markers"
       id="path921"
       d="m 49.117727,275.48511 c 0.309334,-0.0559 0.618792,-0.11145 0.927484,-0.17085 0.06857,-0.005 0.145327,-0.0556 0.207536,-0.0147 0.05048,0.09 -0.04703,0.20076 -0.09541,0.27213 -0.134506,0.1933 -0.299435,0.36224 -0.460901,0.53271 -0.237168,0.23825 -0.467175,0.48589 -0.724586,0.70291 -0.05122,0.0427 -0.103476,0.0843 -0.15743,0.12363 -0.01866,0.007 -0.01324,-0.007 -0.02968,0.0125 -0.0033,0.003 -0.0097,-0.002 -0.01463,-0.002 0.03955,-0.0551 0.04555,-0.10871 0.08156,-0.17032 0,0 0.0082,-0.007 0.0082,-0.007 v 0 c 0.0638,-0.0234 0.08017,-0.0456 0.117125,-0.0987 0.01949,-0.0212 0.03922,-0.0424 0.06347,-0.0584 0.0171,-0.0104 0.02911,-0.0115 0.0393,-0.028 0.05081,-0.0374 0.10013,-0.0769 0.148361,-0.11767 0.06232,-0.0541 0.123447,-0.10927 0.183198,-0.16624 0.02475,-0.0236 0.09757,-0.0961 0.07367,-0.0715 -0.04399,0.0453 -0.368936,0.37285 -0.13393,0.13407 0.16136,-0.16925 0.326946,-0.33643 0.463573,-0.52691 0.05147,-0.0701 0.09605,-0.15045 0.141766,-0.22029 -0.05509,7.2e-4 -0.115907,0.0127 -0.171933,0.0212 -0.307525,0.0492 -0.614096,0.10437 -0.920059,0.16244 0,0 0.253357,-0.30795 0.253357,-0.30795 z"
       inkscape:connector-curvature="0" />
    <path
       style="opacity:1;fill:#374937;fill-opacity:1;stroke:none;stroke-width:0.02370077;stroke-linecap:round;stroke-linejoin:bevel;stroke-miterlimit:4;stroke-dasharray:0.02370077, 0.02370077;stroke-dashoffset:0;stroke-opacity:1;paint-order:stroke fill markers"
       id="path923"
       d="m 48.85822,275.91856 c 0.487491,0.11271 0.976225,0.21995 1.464407,0.32963 0.199239,0.0643 0.387403,0.0256 0.41401,0.26405 0,0 -0.0074,0.008 -0.0074,0.008 v 0 c -0.251746,0.11683 -0.419116,0.11628 -0.690973,0.046 -0.486678,-0.10675 -0.971662,-0.22141 -1.45496,-0.34251 0,0 0.274792,-0.30556 0.274792,-0.30556 z"
       inkscape:connector-curvature="0" />
    <path
       style="opacity:1;fill:#374937;fill-opacity:1;stroke:none;stroke-width:0.02370077;stroke-linecap:round;stroke-linejoin:bevel;stroke-miterlimit:4;stroke-dasharray:0.02370077, 0.02370077;stroke-dashoffset:0;stroke-opacity:1;paint-order:stroke fill markers"
       id="path925"
       d="m 34.246479,273.23711 c 0.371855,0.33164 0.704022,0.70081 1.020246,1.08474 0.185006,0.23909 0.384797,0.46558 0.583378,0.69321 0.08522,0.1162 0.03971,0.0758 -0.111616,0.15322 0,0 0.0082,-0.007 0.0082,-0.007 v 0 c -0.04498,0.15591 -0.06323,0.28853 -0.204255,0.15886 -0.20354,-0.22435 -0.387971,-0.46523 -0.579037,-0.70003 -0.311817,-0.38522 -0.642389,-0.75369 -1.011868,-1.08522 0,0 0.295249,-0.29709 0.295249,-0.29709 z"
       inkscape:connector-curvature="0" />
    <path
       style="opacity:1;fill:#374937;fill-opacity:1;stroke:none;stroke-width:0.02370077;stroke-linecap:round;stroke-linejoin:bevel;stroke-miterlimit:4;stroke-dasharray:0.02370077, 0.02370077;stroke-dashoffset:0;stroke-opacity:1;paint-order:stroke fill markers"
       id="path927"
       d="m 33.132919,275.32218 c 0.395017,-0.52844 0.89698,-0.95102 1.451194,-1.30024 0.415309,-0.243 0.844095,-0.46312 1.246027,-0.72824 0.03733,-0.0269 0.07499,-0.0534 0.112076,-0.0807 0.04687,-0.0344 0.175962,-0.1517 0.135509,-0.10992 -0.414824,0.42859 -0.215659,0.21213 -0.11853,0.12289 0.03166,-0.0268 0.06323,-0.0535 0.09479,-0.0802 0,0 0.0088,-0.007 0.0088,-0.007 v 0 c 0.02541,-0.0161 0.05081,-0.0323 0.0763,-0.0484 0.128619,-0.03 -0.455984,0.48535 -0.563226,0.53834 -0.401019,0.25806 -0.826524,0.47431 -1.237385,0.71593 -0.553984,0.3517 -0.591847,0.36633 -0.900195,0.74932 0,0 -0.30528,0.228 -0.30528,0.228 z"
       inkscape:connector-curvature="0" />
    <path
       style="opacity:1;fill:#374937;fill-opacity:1;stroke:none;stroke-width:0.02370077;stroke-linecap:round;stroke-linejoin:bevel;stroke-miterlimit:4;stroke-dasharray:0.02370077, 0.02370077;stroke-dashoffset:0;stroke-opacity:1;paint-order:stroke fill markers"
       id="path929"
       d="m 37.133672,274.34117 c 0.146017,0.28407 0.300569,0.56374 0.461049,0.83988 0.04942,0.092 0.118218,0.17388 0.147177,0.27538 0.0148,0.0832 -0.0016,0.16902 -0.01521,0.25148 -0.04621,0.23288 -0.138001,0.22559 -0.38127,0.45571 -0.09106,0.0618 -0.198655,0.0896 -0.303183,0.11924 -0.178142,0.0432 -0.359432,0.0716 -0.540295,0.10056 -0.171884,0.0317 -0.344705,0.0483 -0.519221,0.0526 -0.12866,-0.003 -0.26717,-1.9e-4 -0.38603,-0.0565 -0.09751,-0.0545 -0.05237,-0.13287 0.0016,-0.20492 0.262065,-0.32852 0.61889,-0.52378 0.953795,-0.76226 0.225616,-0.16728 0.452835,-0.33221 0.686846,-0.48758 0.172822,-0.12418 0.3556,-0.23119 0.543107,-0.33124 0.184793,-0.0942 0.372702,-0.1825 0.549988,-0.29049 0.113145,-0.0866 0.360434,-0.30685 -0.123176,0.13875 -0.02294,0.0211 0.04662,-0.0574 0.06709,-0.13017 0.02467,-0.14219 -0.07186,-0.18127 -0.190071,-0.21909 -0.295842,-0.067 -0.599519,-0.0363 -0.897128,-3.7e-4 -0.07268,0.0516 -0.346284,0.0114 -0.412703,0.0596 -0.01348,0.01 -0.0157,0.0294 -0.02352,0.044 0,0 -0.0088,0.007 -0.0088,0.007 v 0 c 0.176851,-0.25043 0.409464,-0.38189 0.712442,-0.43273 0.307155,-0.0525 0.623955,-0.0856 0.929745,-0.005 0.137433,0.0528 0.236132,0.12146 0.213694,0.28292 -0.04687,0.25967 -0.307797,0.42262 -0.509815,0.57212 -0.178922,0.10342 -0.365886,0.19149 -0.549216,0.28669 -0.187136,0.10109 -0.367489,0.21254 -0.541387,0.33516 -0.233115,0.15561 -0.459002,0.32139 -0.684988,0.48712 -0.09687,0.0687 -1.025393,0.75034 -0.391621,0.20642 -0.03774,0.0394 -0.130059,0.10922 -0.04506,0.14046 0.120192,0.0414 0.249978,0.0408 0.375588,0.042 0.173718,-0.005 0.345347,-0.0264 0.516302,-0.0578 0.180189,-0.0294 0.361109,-0.0579 0.537589,-0.10548 0.103723,-0.0311 0.207117,-0.0658 0.295291,-0.13076 -0.423129,0.43497 -0.249838,0.33287 -0.20548,0.15472 0.01891,-0.0767 0.03026,-0.15926 0.02812,-0.23797 -0.01866,-0.1007 -0.09049,-0.18081 -0.134638,-0.27093 -0.153598,-0.28094 -0.310197,-0.56027 -0.460334,-0.84309 0,0 0.303521,-0.28491 0.303521,-0.28491 z"
       inkscape:connector-curvature="0" />
    <path
       style="fill:none;stroke:#000000;stroke-width:0.26458332px;stroke-linecap:butt;stroke-linejoin:miter;stroke-opacity:1"
       d="M 11.961318,259.60549 25.657791,241.85571"
       id="path950"
       inkscape:connector-curvature="0"
       inkscape:path-effect="#path-effect952"
       inkscape:original-d="M 11.961318,259.60549 25.657791,241.85571" />
    <path
       style="fill:none;stroke:#000000;stroke-width:0.26458332px;stroke-linecap:butt;stroke-linejoin:miter;stroke-opacity:1"
       d="m 30.315691,240.74426 32.485123,7.29347"
       id="path954"
       inkscape:connector-curvature="0"
       inkscape:path-effect="#path-effect956"
       inkscape:original-d="m 30.315691,240.74426 32.485123,7.29347" />
    <path
       style="fill:none;stroke:#000000;stroke-width:0.26458332px;stroke-linecap:butt;stroke-linejoin:miter;stroke-opacity:1"
       d="m 66.246591,250.68679 2.149091,11.39083"
       id="path958"
       inkscape:connector-curvature="0"
       inkscape:path-effect="#path-effect960"
       inkscape:original-d="m 66.246591,250.68679 2.149091,11.39083" />
    <path
       style="fill:none;stroke:#000000;stroke-width:0.26458332px;stroke-linecap:butt;stroke-linejoin:miter;stroke-opacity:1"
       d="M 68.948479,266.03157 53.704675,278.94612"
       id="path962"
       inkscape:connector-curvature="0"
       inkscape:path-effect="#path-effect964"
       inkscape:original-d="M 68.948479,266.03157 53.704675,278.94612"
       sodipodi:nodetypes="cc" />
    <path
       style="fill:none;stroke:#000000;stroke-width:0.26458332px;stroke-linecap:butt;stroke-linejoin:miter;stroke-opacity:1"
       d="m 49.04678,280.05758 -18.341265,7.85429"
       id="path966"
       inkscape:connector-curvature="0"
       inkscape:path-effect="#path-effect968"
       inkscape:original-d="m 49.04678,280.05758 -18.341265,7.85429" />
    <path
       style="fill:none;stroke:#000000;stroke-width:0.26458332px;stroke-linecap:butt;stroke-linejoin:miter;stroke-opacity:1"
       d="M 26.15821,287.40903 12.035498,264.0825"
       id="path970"
       inkscape:connector-curvature="0"
       inkscape:path-effect="#path-effect972"
       inkscape:original-d="M 26.15821,287.40903 12.035498,264.0825" />
  </g>
</svg>
