<?xml version="1.0" encoding="UTF-8" standalone="no"?>
<svg
   xmlns:dc="http://purl.org/dc/elements/1.1/"
   xmlns:cc="http://creativecommons.org/ns#"
   xmlns:rdf="http://www.w3.org/1999/02/22-rdf-syntax-ns#"
   xmlns:svg="http://www.w3.org/2000/svg"
   xmlns="http://www.w3.org/2000/svg"
   id="svg8"
   version="1.1"
   viewBox="0 0 76 44.5"
   height="44.5mm"
   width="76mm">
  <defs
     id="defs2" />
  <metadata
     id="metadata5">
    <rdf:RDF>
      <cc:Work
         rdf:about="">
        <dc:format>image/svg+xml</dc:format>
        <dc:type
           rdf:resource="http://purl.org/dc/dcmitype/StillImage" />
        <dc:title />
        <cc:license
           rdf:resource="http://creativecommons.org/licenses/by-nc-nd/4.0/" />
        <dc:creator>
          <cc:Agent>
            <dc:title>Marek Gagolewski</dc:title>
          </cc:Agent>
        </dc:creator>
        <dc:rights>
          <cc:Agent>
            <dc:title>Marek Gagolewski</dc:title>
          </cc:Agent>
        </dc:rights>
        <dc:publisher>
          <cc:Agent>
            <dc:title>Marek Gagolewski</dc:title>
          </cc:Agent>
        </dc:publisher>
        <dc:source>http://www.gagolewski.com</dc:source>
      </cc:Work>
      <cc:License
         rdf:about="http://creativecommons.org/licenses/by-nc-nd/4.0/">
        <cc:permits
           rdf:resource="http://creativecommons.org/ns#Reproduction" />
        <cc:permits
           rdf:resource="http://creativecommons.org/ns#Distribution" />
        <cc:requires
           rdf:resource="http://creativecommons.org/ns#Notice" />
        <cc:requires
           rdf:resource="http://creativecommons.org/ns#Attribution" />
        <cc:prohibits
           rdf:resource="http://creativecommons.org/ns#CommercialUse" />
      </cc:License>
    </rdf:RDF>
  </metadata>
  <g
     transform="translate(0,-252.5)"
     id="layer1">
    <path
       transform="matrix(4.4786461,0,0,5.1025067,-23.363421,-1186.123)"
       d="m 11.308373,282.39171 c 0.795387,0.42798 2.120852,3.18008 1.959608,4.06879 -0.161245,0.88871 -2.369062,2.99975 -3.264103,3.12103 -0.8950414,0.12127 -3.5850124,-1.32614 -3.9769339,-2.1399 -0.3919215,-0.81376 0.153402,-3.81935 0.8062225,-4.44355 0.6528206,-0.62421 3.6798204,-1.03435 4.4752064,-0.60637 z"
       id="path887"
       style="opacity:1;fill:#00fff1;fill-opacity:0.0982143;fill-rule:evenodd;stroke:#39326b;stroke-width:0.21166448;stroke-linecap:round;stroke-linejoin:round;stroke-miterlimit:4;stroke-dasharray:none;stroke-dashoffset:0;stroke-opacity:1" />
    <path
       d="m 74.487146,281.1699 a 17.481398,18.709822 0 0 1 -19.178512,9.64802 17.481398,18.709822 0 0 1 -13.778771,-17.23179 17.481398,18.709822 0 0 1 11.868856,-18.78951 17.481398,18.709822 0 0 1 20.075215,7.26393 l -14.490753,10.46554 z"
       style="opacity:1;fill:#ffed64;fill-opacity:0.09375;fill-rule:evenodd;stroke:#ff5595;stroke-width:1;stroke-linecap:round;stroke-linejoin:round;stroke-miterlimit:4;stroke-dasharray:none;stroke-dashoffset:0;stroke-opacity:1"
       id="ellipse874" />
    <path
       transform="matrix(0.72692399,0,0,0.72692399,-9.9651695,232.07885)"
       id="path839"
       d="m 28.915177,65.111605 c -0.226221,0.182327 -0.367848,0.465582 -0.377976,0.755955 -0.0022,0.06296 0,0.125987 0,0.188986 v 0.377976 0.188989 c 0,0.03163 -0.0016,0.06324 -0.0041,0.09477 -0.0026,0.03153 -0.0052,0.06399 0.0041,0.09422 0.0067,0.0216 0.01944,0.04096 0.0348,0.05755 0.01536,0.01659 0.0333,0.03057 0.05167,0.04375 0.03674,0.02636 0.07649,0.05073 0.102521,0.0877 0.01933,0.02744 0.02994,0.06093 0.02994,0.0945 0,0.03356 -0.01061,0.06705 -0.02994,0.09449 -0.0038,0.07355 0.01178,0.148007 0.04471,0.213878 0.03294,0.06587 0.08316,0.123 0.144274,0.164098 0.03855,0.02592 0.08126,0.04556 0.117991,0.074 0.01837,0.01422 0.03521,0.03068 0.04803,0.05005 0.01282,0.01937 0.02153,0.04176 0.02297,0.06495 0.002,0.03262 -0.01013,0.06421 -0.01661,0.09624 -0.0032,0.01602 -0.0051,0.0325 -0.003,0.04871 0.0021,0.01621 0.0083,0.03221 0.01961,0.04403 0.01135,0.01191 0.02719,0.01894 0.04342,0.02162 0.01623,0.0027 0.03291,0.0013 0.04907,-0.0018 0.03232,-0.0062 0.0636,-0.01913 0.0965,-0.01977 0.02337,-4.55e-4 0.04666,0.0054 0.06767,0.01568 0.02101,0.01024 0.03978,0.02476 0.05604,0.04154 0.03253,0.03356 0.05481,0.07556 0.07527,0.117585 0.02047,0.04202 0.03978,0.08505 0.06771,0.122532 0.02793,0.03748 0.06587,0.06957 0.111281,0.08064 0.03069,0.0075 0.0628,0.0053 0.09432,0.0033 0.03152,-0.002 0.06309,-0.0033 0.09467,-0.0033 h 0.188989 c 0.03168,0 0.06332,-0.0018 0.09486,-0.0048 0.03154,-0.0029 0.06432,-0.006 0.09413,0.0048 0.02137,0.0077 0.03971,0.02227 0.05488,0.03918 0.01516,0.0169 0.02743,0.03616 0.03962,0.05532 0.01219,0.01916 0.02445,0.03842 0.03962,0.05532 0.01516,0.0169 0.03351,0.03149 0.05488,0.03918 0.02981,0.01072 0.06259,0.0077 0.09413,0.0048 0.03154,-0.0029 0.06319,-0.0048 0.09486,-0.0048 h 0.188987 0.188989 c 0.03158,0 0.06315,0.0012 0.09466,0.0033 0.03152,0.002 0.06362,0.0041 0.09432,-0.0033 0.04444,-0.01068 0.08187,-0.04111 0.111198,-0.07616 0.02933,-0.03506 0.05194,-0.07513 0.07779,-0.112825 0.05069,-0.07392 0.114465,-0.139189 0.188986,-0.18899 0.03823,-0.02555 0.07928,-0.04708 0.114892,-0.07616 0.01781,-0.01454 0.03421,-0.03097 0.04731,-0.04987 0.0131,-0.01889 0.02285,-0.04031 0.02678,-0.06296 0.0054,-0.0313 -2.96e-4,-0.06331 -0.0045,-0.0948 -0.0042,-0.03149 -0.0068,-0.0645 0.0045,-0.09419 0.0081,-0.02121 0.02282,-0.03936 0.03977,-0.05444 0.01696,-0.01508 0.03618,-0.02735 0.05528,-0.0396 0.0191,-0.01225 0.03827,-0.02463 0.05506,-0.03989 0.01679,-0.01526 0.03126,-0.03368 0.03887,-0.05505 0.01063,-0.02984 0.0076,-0.06259 0.0047,-0.09413 -0.0029,-0.03154 -0.0047,-0.06318 -0.0047,-0.09486 v -0.188987 -0.188989 c 0,-0.06384 0.0056,-0.127514 0.01458,-0.190717 0.0045,-0.0316 0.0088,-0.06339 0.0082,-0.0953 -6.51e-4,-0.03191 -0.0066,-0.06439 -0.02274,-0.09196 -0.02282,-0.03908 -0.06302,-0.06405 -0.100326,-0.08966 -0.01865,-0.01281 -0.03705,-0.02622 -0.05287,-0.0424 -0.01582,-0.01618 -0.02906,-0.03533 -0.0358,-0.05693 -0.0094,-0.03031 -0.0055,-0.06297 -0.0012,-0.09441 0.0044,-0.03144 0.0091,-0.06384 0.0012,-0.09457 -0.0057,-0.02195 -0.01764,-0.04193 -0.03248,-0.05907 -0.01483,-0.01715 -0.0325,-0.03162 -0.0508,-0.045 -0.03661,-0.02675 -0.07676,-0.05002 -0.105712,-0.08492 -0.03359,-0.0405 -0.04904,-0.09335 -0.05462,-0.145673 -0.0056,-0.05232 -0.0021,-0.105124 -0.0024,-0.15774 -2.45e-4,-0.05262 -0.0044,-0.106255 -0.02434,-0.154962 -0.01,-0.02435 -0.02383,-0.04725 -0.04198,-0.06629 -0.01815,-0.01904 -0.04066,-0.03416 -0.06568,-0.0423 -0.03014,-0.0098 -0.06263,-0.0093 -0.09421,-0.0065 -0.03157,0.0028 -0.06311,0.0078 -0.09478,0.0065 -0.05799,-0.0023 -0.113627,-0.02575 -0.1617,-0.05826 -0.04807,-0.03252 -0.08938,-0.07394 -0.129324,-0.116042 -0.03994,-0.0421 -0.07903,-0.08532 -0.123734,-0.122321 -0.04471,-0.037 -0.09575,-0.0679 -0.152205,-0.08135 -0.06159,-0.01467 -0.126023,-0.0079 -0.188941,-8.58e-4 -0.06292,0.0071 -0.127188,0.01441 -0.189037,8.58e-4 -0.06922,-0.01517 -0.129991,-0.05525 -0.188971,-0.09453 -0.05898,-0.03929 -0.119768,-0.07934 -0.189005,-0.09445 -0.06182,-0.01349 -0.12601,-0.0061 -0.188987,0 -0.130981,0.01273 -0.262827,0.01983 -0.392138,0.04426 -0.129311,0.02443 -0.257441,0.06725 -0.363816,0.144724 -0.108963,0.07936 -0.190734,0.192228 -0.246432,0.314983 -0.0557,0.122755 -0.08664,0.255551 -0.104523,0.389159 -0.03577,0.267217 -0.02702,0.538164 -0.02702,0.807764 v 0.188987"
       style="fill:#00ff00;stroke:#326b46;stroke-width:0.26412666;stroke-linecap:round;stroke-linejoin:miter;stroke-miterlimit:4;stroke-dasharray:1.05650666, 0.52825333;stroke-dashoffset:0;stroke-opacity:1" />
    <path
       transform="matrix(0.72692399,0,0,0.72692399,-9.9651695,232.07885)"
       id="path843"
       d="m 44.790177,43.755952 c 0.100137,0.324519 0.226684,0.640885 0.377978,0.944941 0.02067,0.04153 0.04209,0.08329 0.0724,0.118416 0.0303,0.03513 0.07074,0.0635 0.11659,0.07057 0.03136,0.0048 0.06326,-4.23e-4 0.09475,-0.0043 0.03149,-0.0038 0.06425,-0.0061 0.09423,0.0043 0.02135,0.0074 0.04018,0.02093 0.0562,0.03686 0.01602,0.01593 0.02942,0.03427 0.04231,0.05283 0.02578,0.03711 0.05128,0.07682 0.09048,0.0993 0.02768,0.01587 0.06013,0.02177 0.09203,0.02241 0.0319,6.39e-4 0.06368,-0.0036 0.09528,-0.008 0.0632,-0.0089 0.126852,-0.01436 0.190667,-0.01436 h 0.377978 0.377976 c 0.03166,0 0.06328,0.0017 0.09482,0.0045 0.03154,0.0028 0.06416,0.0056 0.09417,-0.0045 0.02133,-0.0072 0.04003,-0.02071 0.05622,-0.03634 0.01619,-0.01563 0.03016,-0.03338 0.04398,-0.05113 0.02765,-0.0355 0.05697,-0.06969 0.08879,-0.101515 0.125991,-0.125992 0.251983,-0.251984 0.377975,-0.377976 0.063,-0.063 0.125993,-0.125993 0.18899,-0.188989 0.03184,-0.03184 0.06614,-0.0611 0.101786,-0.08861 0.01782,-0.01376 0.03564,-0.02767 0.05127,-0.04388 0.01563,-0.01621 0.0291,-0.03504 0.03593,-0.0565 0.0096,-0.03028 0.0053,-0.06302 6.33e-4,-0.09445 -0.0046,-0.03143 -0.0094,-0.06401 -6.33e-4,-0.09454 0.0063,-0.02176 0.01922,-0.04116 0.03486,-0.05754 0.01564,-0.01638 0.03396,-0.02994 0.05262,-0.04277 0.03731,-0.02567 0.07771,-0.05013 0.10151,-0.08867 0.01689,-0.02735 0.02395,-0.05991 0.02463,-0.09204 6.8e-4,-0.03213 -0.0047,-0.06408 -0.01122,-0.09555 -0.0065,-0.03148 -0.01413,-0.06278 -0.01801,-0.09469 -0.0039,-0.0319 -0.0039,-0.06471 0.0046,-0.09569 0.0098,-0.03559 0.03047,-0.0673 0.05409,-0.09567 0.02362,-0.02837 0.05038,-0.05397 0.07479,-0.08166 0.02442,-0.02769 0.04677,-0.05798 0.05957,-0.0926 0.01281,-0.03462 0.01529,-0.07421 5.31e-4,-0.10805 -0.0091,-0.02076 -0.0241,-0.03845 -0.04112,-0.05338 -0.01703,-0.01493 -0.03609,-0.02732 -0.05498,-0.0398 -0.0189,-0.01248 -0.03778,-0.02518 -0.05434,-0.04063 -0.01655,-0.01545 -0.0308,-0.0339 -0.03854,-0.05517 -0.01086,-0.02984 -0.0082,-0.06274 -0.0041,-0.09423 0.0041,-0.03148 0.0096,-0.0635 0.0041,-0.09476 -0.004,-0.02263 -0.01378,-0.04403 -0.02687,-0.06292 -0.01309,-0.01889 -0.02947,-0.03535 -0.04725,-0.04991 -0.03556,-0.02913 -0.07656,-0.05073 -0.114865,-0.07615 -0.07473,-0.04959 -0.13946,-0.114218 -0.188986,-0.188989 -0.0254,-0.03834 -0.04692,-0.07942 -0.07603,-0.115016 -0.01456,-0.0178 -0.03102,-0.03419 -0.04994,-0.04726 -0.01891,-0.01308 -0.04036,-0.02279 -0.06302,-0.02671 -0.03131,-0.0054 -0.06331,3.33e-4 -0.0948,0.0046 -0.03149,0.0042 -0.0645,0.0068 -0.09419,-0.0046 -0.0212,-0.0081 -0.03935,-0.02283 -0.05443,-0.03978 -0.01508,-0.01696 -0.02735,-0.03618 -0.0396,-0.05528 -0.01225,-0.0191 -0.02464,-0.03826 -0.0399,-0.05506 -0.01526,-0.01679 -0.03368,-0.03125 -0.05505,-0.03887 -0.02984,-0.01063 -0.06259,-0.0076 -0.09413,-0.0047 -0.03154,0.0029 -0.06318,0.0047 -0.09486,0.0047 h -0.188986 c -0.06386,0 -0.127546,-0.0056 -0.190754,-0.01473 -0.0316,-0.0045 -0.0634,-0.0089 -0.09532,-0.0083 -0.03192,6.59e-4 -0.06442,0.0067 -0.0919,0.02298 -0.0195,0.01153 -0.03582,0.02782 -0.04998,0.0455 -0.01416,0.01768 -0.02633,0.03685 -0.03907,0.05558 -0.01274,0.01873 -0.02617,0.03716 -0.04247,0.0529 -0.0163,0.01574 -0.03568,0.02877 -0.05746,0.03501 -0.03056,0.0088 -0.06315,0.0036 -0.09458,-0.0011 -0.03143,-0.0048 -0.06431,-0.0091 -0.09441,0.0011 -0.0215,0.0073 -0.04006,0.02166 -0.05538,0.03842 -0.01532,0.01676 -0.02769,0.03596 -0.03988,0.05511 -0.0122,0.01915 -0.02437,0.03845 -0.03938,0.05549 -0.01501,0.01704 -0.03313,0.03187 -0.05434,0.03996 -0.02969,0.01133 -0.06271,0.0087 -0.0942,0.0044 -0.03149,-0.0043 -0.06353,-0.01004 -0.09479,-0.0044 -0.02257,0.0041 -0.04384,0.01407 -0.06254,0.02737 -0.01869,0.0133 -0.03489,0.02985 -0.04928,0.04772 -0.02878,0.03573 -0.05041,0.07663 -0.07717,0.113895 -0.05208,0.07253 -0.122253,0.129656 -0.188989,0.188986 -0.06663,0.05924 -0.130661,0.121562 -0.188987,0.18899 -0.226083,0.261368 -0.361438,0.599754 -0.377978,0.94494 z"
       style="fill:#00ff00;stroke:#326b46;stroke-width:0.26412666;stroke-linecap:round;stroke-linejoin:miter;stroke-miterlimit:4;stroke-dasharray:1.05650666, 0.52825333;stroke-dashoffset:0;stroke-opacity:1" />
    <path
       transform="matrix(0.72692399,0,0,0.72692399,-9.9651695,232.07885)"
       id="path851"
       d="M 31.466964,65.433318 45.746479,44.929322"
       style="fill:none;stroke:#326b46;stroke-width:0.26412666;stroke-linecap:round;stroke-linejoin:miter;stroke-miterlimit:4;stroke-dasharray:1.05650666, 0.52825333;stroke-dashoffset:0;stroke-opacity:1" />
    <path
       transform="matrix(0.72692399,0,0,0.72692399,-29.550699,232.76315)"
       id="path855"
       d="m 130.02381,70.781248 c -0.13204,-0.01405 -0.26925,0.03037 -0.36799,0.119163 -0.0987,0.08879 -0.15744,0.220519 -0.15744,0.353308 0,0.132788 0.0587,0.26452 0.15744,0.353307 0.0987,0.08879 0.23595,0.133218 0.36799,0.119163 0.0645,-0.0069 0.12698,-0.02686 0.19132,-0.03507 0.0322,-0.0041 0.0649,-0.0052 0.097,-2.64e-4 0.032,0.005 0.0635,0.01625 0.0897,0.03533 0.0366,0.02661 0.0608,0.06633 0.0873,0.10298 0.0132,0.01833 0.0273,0.03619 0.044,0.05146 0.0167,0.01527 0.0361,0.02793 0.0577,0.03455 0.0302,0.0093 0.0627,0.0066 0.0942,0.0041 0.0315,-0.0025 0.0631,-0.0041 0.0948,-0.0041 h 0.18899 c 0.0316,0 0.0632,0.0012 0.0947,0.0033 0.0315,0.002 0.0636,0.0041 0.0943,-0.0033 0.0444,-0.01068 0.0819,-0.0411 0.1112,-0.07616 0.0293,-0.03506 0.0519,-0.07513 0.0778,-0.112827 0.0507,-0.07393 0.11445,-0.139218 0.18899,-0.188987 0.0382,-0.02553 0.0793,-0.04704 0.11495,-0.07611 0.0178,-0.01454 0.0342,-0.03098 0.0473,-0.04988 0.0131,-0.0189 0.0228,-0.04034 0.0267,-0.063 0.005,-0.03132 -4.4e-4,-0.06332 -0.005,-0.09481 -0.004,-0.03149 -0.007,-0.06454 0.005,-0.09417 0.008,-0.02118 0.0231,-0.03923 0.0402,-0.05416 0.0171,-0.01494 0.0365,-0.02705 0.0556,-0.03921 0.0192,-0.01217 0.0384,-0.02455 0.0551,-0.03994 0.0167,-0.01539 0.0309,-0.03408 0.038,-0.05567 0.01,-0.03024 0.005,-0.06307 1e-5,-0.09449 -0.005,-0.03142 -0.01,-0.06425 -1e-5,-0.09449 0.007,-0.02159 0.0213,-0.04029 0.038,-0.05569 0.0167,-0.0154 0.0359,-0.02779 0.0551,-0.03997 0.0192,-0.01217 0.0385,-0.02428 0.0556,-0.03921 0.0171,-0.01493 0.0321,-0.03295 0.0403,-0.05412 0.0127,-0.0325 0.008,-0.06939 -0.002,-0.102539 -0.0109,-0.03315 -0.0279,-0.06389 -0.0412,-0.09613 -0.0133,-0.03225 -0.0229,-0.06731 -0.0178,-0.10181 0.003,-0.01725 0.009,-0.03409 0.0194,-0.04801 0.0105,-0.01392 0.0253,-0.0248 0.0421,-0.02948 0.0159,-0.0044 0.0328,-0.0033 0.0489,1.54e-4 0.0161,0.0034 0.0317,0.009 0.0475,0.01342 0.0159,0.0044 0.0323,0.0077 0.0487,0.0064 0.0164,-0.0013 0.0329,-0.0077 0.0438,-0.02001 0.0107,-0.0121 0.015,-0.02872 0.0155,-0.04485 4.9e-4,-0.01614 -0.002,-0.03216 -0.006,-0.04801 -0.006,-0.0317 -0.01,-0.06383 -0.01,-0.09612 V 69.83631 c 0,-0.03245 0.004,-0.06471 0.0109,-0.09645 0.003,-0.01587 0.007,-0.03196 0.006,-0.04817 -2.7e-4,-0.0081 -0.002,-0.01622 -0.004,-0.02386 -0.003,-0.0076 -0.007,-0.01481 -0.0127,-0.0205 -0.006,-0.0058 -0.0133,-0.01 -0.0212,-0.01245 -0.008,-0.0025 -0.0162,-0.0034 -0.0245,-0.0031 -0.0165,5.76e-4 -0.0325,0.0057 -0.0481,0.01118 -0.0156,0.0055 -0.0312,0.01132 -0.0476,0.01344 -0.0164,0.0021 -0.0339,1.23e-4 -0.0476,-0.0091 -0.0139,-0.0093 -0.0225,-0.02526 -0.0255,-0.04174 -0.003,-0.01648 -9.2e-4,-0.03352 0.003,-0.04978 0.004,-0.01626 0.01,-0.03199 0.0147,-0.04805 0.005,-0.01606 0.008,-0.03268 0.008,-0.04942 -9.6e-4,-0.02311 -0.0103,-0.04538 -0.0238,-0.06411 -0.0136,-0.01873 -0.0313,-0.03414 -0.0502,-0.04751 -0.0377,-0.02675 -0.0808,-0.04615 -0.11499,-0.07736 -0.0335,-0.03063 -0.0564,-0.07082 -0.0835,-0.107238 -0.0136,-0.01821 -0.0284,-0.03566 -0.0458,-0.0502 -0.0174,-0.01455 -0.0376,-0.02615 -0.0597,-0.03155 -0.034,-0.0083 -0.0701,-0.0014 -0.10304,0.01045 -0.0329,0.0119 -0.0639,0.02868 -0.0967,0.04106 -0.0328,0.01238 -0.0685,0.02032 -0.10283,0.01351 -0.0172,-0.0034 -0.0337,-0.01057 -0.0473,-0.0217 -0.0135,-0.01113 -0.0239,-0.02634 -0.0281,-0.04333 -0.004,-0.01598 -0.003,-0.03287 9.1e-4,-0.04897 0.004,-0.01609 0.009,-0.03166 0.0134,-0.04755 0.004,-0.01589 0.008,-0.03237 0.006,-0.04878 -0.001,-0.01641 -0.008,-0.03286 -0.0204,-0.04369 -0.0122,-0.01061 -0.0288,-0.01491 -0.0449,-0.01539 -0.0161,-4.8e-4 -0.0322,0.0024 -0.048,0.0055 -0.0317,0.0061 -0.0638,0.0099 -0.0961,0.0099 h -0.37798 c -0.0316,0 -0.0632,-0.0014 -0.0947,-0.0037 -0.0315,-0.0023 -0.0638,-0.0047 -0.0943,0.0037 -0.0218,0.0061 -0.0418,0.01778 -0.0593,0.03223 -0.0175,0.01445 -0.0325,0.03163 -0.0463,0.04959 -0.0276,0.03593 -0.051,0.07553 -0.0834,0.107169 -0.0326,0.03178 -0.073,0.05416 -0.10925,0.08168 -0.0181,0.01376 -0.0353,0.02893 -0.0495,0.04673 -0.0142,0.0178 -0.0253,0.03836 -0.0302,0.06058 -0.007,0.03102 -0.001,0.06325 0.003,0.09471 0.004,0.03146 0.008,0.0644 -0.003,0.09428 -0.008,0.02134 -0.0222,0.03969 -0.0391,0.05491 -0.0168,0.01522 -0.036,0.02757 -0.0551,0.03982 -0.0191,0.01225 -0.0383,0.02455 -0.0552,0.03967 -0.0169,0.01512 -0.0316,0.03334 -0.0395,0.05459 -0.0111,0.02975 -0.008,0.06274 -0.004,0.09422 0.004,0.03148 0.01,0.06356 0.004,0.09477 -0.004,0.0225 -0.0145,0.04362 -0.028,0.06213 -0.0135,0.01851 -0.0301,0.03451 -0.0481,0.04878 -0.0358,0.02853 -0.0766,0.0503 -0.11298,0.07807 -0.0654,0.04992 -0.11583,0.119307 -0.14305,0.19698 -0.0272,0.07767 -0.0312,0.163338 -0.0112,0.243185 0.02,0.07985 0.0638,0.153576 0.12433,0.209301 0.0606,0.05572 0.13769,0.09324 0.21892,0.106486 z"
       style="fill:#00fff1;fill-opacity:1;stroke:#003daa;stroke-width:0.26412666;stroke-linecap:round;stroke-linejoin:miter;stroke-miterlimit:4;stroke-dasharray:0.52825333, 0.52825333;stroke-dashoffset:0;stroke-opacity:1" />
    <path
       transform="matrix(0.72692399,0,0,0.72692399,-34.679965,234.07148)"
       id="path859"
       d="m 133.23661,38.275297 c -0.12288,-0.03129 -0.25475,-0.0264 -0.37498,0.01389 -0.12024,0.04029 -0.22841,0.115855 -0.30763,0.214873 -0.0792,0.09902 -0.12919,0.221144 -0.14211,0.34729 -0.0129,0.126145 0.0113,0.255866 0.0688,0.368886 0.0161,0.0317 0.0351,0.06302 0.0403,0.0982 0.003,0.01759 0.002,0.03597 -0.005,0.05248 -0.007,0.01651 -0.019,0.03101 -0.0352,0.03831 -0.015,0.0068 -0.0322,0.007 -0.0485,0.0042 -0.0162,-0.0028 -0.0318,-0.0085 -0.0475,-0.01341 -0.0157,-0.0049 -0.0319,-0.0091 -0.0484,-0.0087 -0.008,2.03e-4 -0.0165,0.0016 -0.0242,0.0045 -0.008,0.0029 -0.0148,0.0074 -0.0205,0.01337 -0.006,0.0059 -0.01,0.01311 -0.0122,0.02078 -0.003,0.0077 -0.004,0.01576 -0.004,0.02384 -5.1e-4,0.01617 0.003,0.03223 0.006,0.04809 0.006,0.03172 0.0105,0.06391 0.0105,0.09628 v 0.377976 0.377976 c 0,0.03253 -0.004,0.06485 -0.0114,0.09662 -0.003,0.01588 -0.007,0.032 -0.006,0.04825 2.9e-4,0.0081 0.002,0.01626 0.004,0.02388 0.003,0.0076 0.007,0.01472 0.0132,0.02024 0.006,0.0056 0.0138,0.0095 0.0218,0.01163 0.008,0.0021 0.0165,0.0025 0.0248,0.0018 0.0166,-0.0015 0.0324,-0.0076 0.0479,-0.0136 0.0155,-0.006 0.0313,-0.01205 0.0479,-0.0135 0.008,-7.23e-4 0.0167,-2.66e-4 0.0248,0.0019 0.008,0.0022 0.0157,0.0061 0.0217,0.0118 0.006,0.0057 0.0104,0.01302 0.0131,0.02089 0.003,0.0079 0.004,0.01625 0.003,0.02454 -5.6e-4,0.01659 -0.006,0.03261 -0.0116,0.04819 -0.006,0.01558 -0.0119,0.0312 -0.0141,0.04764 -0.001,0.0082 -0.001,0.01662 1.7e-4,0.0248 0.001,0.0082 0.004,0.01614 0.009,0.02293 0.005,0.0068 0.0113,0.01236 0.0186,0.01636 0.007,0.004 0.0154,0.0065 0.0237,0.0077 0.0165,0.0024 0.0333,-3.35e-4 0.0495,-0.0047 0.0161,-0.0044 0.0317,-0.01034 0.0478,-0.01468 0.0161,-0.0043 0.0329,-0.007 0.0494,-0.0046 0.0227,0.0033 0.0432,0.01614 0.0593,0.03245 0.0161,0.01631 0.0284,0.03601 0.0399,0.05585 0.0115,0.01984 0.0225,0.04011 0.0367,0.05819 0.0141,0.01807 0.0318,0.03405 0.0531,0.0425 0.0147,0.0058 0.0307,0.0079 0.0466,0.0081 0.0159,2.2e-4 0.0317,-0.0013 0.0475,-0.0029 0.0316,-0.0032 0.0632,-0.0052 0.0949,-0.0052 h 0.37797 0.18899 c 0.0323,0 0.0644,0.0038 0.0961,0.0098 0.0158,0.003 0.0319,0.0059 0.048,0.0054 0.0161,-4.71e-4 0.0327,-0.0047 0.045,-0.01517 0.0125,-0.01071 0.0193,-0.02706 0.021,-0.04346 0.002,-0.0164 -0.001,-0.03295 -0.005,-0.04889 -0.004,-0.01594 -0.01,-0.03153 -0.0135,-0.0476 -0.004,-0.01607 -0.005,-0.03289 -0.002,-0.04903 0.005,-0.02258 0.0191,-0.04219 0.0366,-0.05723 0.0175,-0.01504 0.038,-0.02606 0.0583,-0.03699 0.0203,-0.01093 0.0408,-0.02202 0.0582,-0.03718 0.0174,-0.01516 0.0316,-0.03494 0.036,-0.05758 0.003,-0.01628 0.001,-0.03315 -0.003,-0.04924 -0.004,-0.01609 -0.01,-0.03168 -0.0141,-0.04767 -0.004,-0.01599 -0.007,-0.03267 -0.005,-0.04912 0.002,-0.01646 0.009,-0.03278 0.0223,-0.04296 0.013,-0.0101 0.0303,-0.0132 0.0467,-0.01188 0.0164,0.0013 0.0322,0.0066 0.0478,0.01192 0.0156,0.0053 0.0314,0.0106 0.0478,0.0119 0.0164,0.0013 0.0338,-0.0018 0.0467,-0.01193 0.0131,-0.01019 0.0204,-0.02653 0.0223,-0.04298 0.002,-0.01646 -0.001,-0.03312 -0.005,-0.04911 -0.004,-0.01599 -0.0101,-0.03157 -0.0141,-0.04766 -0.004,-0.01609 -0.006,-0.03297 -0.003,-0.04923 0.004,-0.02264 0.0188,-0.04236 0.0363,-0.05743 0.0175,-0.01506 0.038,-0.02604 0.0584,-0.03691 0.0204,-0.01087 0.0409,-0.02189 0.0583,-0.03702 0.0174,-0.01513 0.0317,-0.03495 0.036,-0.05763 0.003,-0.01634 8.1e-4,-0.03325 -0.003,-0.04935 -0.004,-0.0161 -0.01,-0.03169 -0.0145,-0.04771 -0.004,-0.01602 -0.007,-0.03276 -0.005,-0.04925 0.001,-0.0082 0.003,-0.01637 0.007,-0.02374 0.004,-0.0074 0.009,-0.014 0.0159,-0.01893 0.007,-0.0049 0.0145,-0.0081 0.0226,-0.0097 0.008,-0.0016 0.0165,-0.0016 0.0247,-6.75e-4 0.0164,0.0019 0.0321,0.0078 0.0477,0.01345 0.0156,0.0056 0.0315,0.01101 0.048,0.01184 0.008,4.17e-4 0.0166,-3.34e-4 0.0246,-0.0027 0.008,-0.0024 0.0154,-0.0065 0.0213,-0.01222 0.006,-0.0056 0.0101,-0.01279 0.0129,-0.02043 0.003,-0.0076 0.004,-0.01575 0.004,-0.02387 5.6e-4,-0.01622 -0.003,-0.03232 -0.006,-0.04819 -0.007,-0.03175 -0.0111,-0.06403 -0.0111,-0.0965 v -0.377976 c 0,-0.03254 0.004,-0.06488 0.0115,-0.09665 0.004,-0.01589 0.007,-0.03201 0.006,-0.04827 -2.9e-4,-0.0081 -0.002,-0.01627 -0.004,-0.02388 -0.003,-0.0076 -0.007,-0.01471 -0.0133,-0.02018 -0.006,-0.0056 -0.0139,-0.0094 -0.022,-0.01145 -0.008,-0.002 -0.0166,-0.0023 -0.0249,-0.0015 -0.0166,0.0017 -0.0324,0.008 -0.0479,0.01416 -0.0155,0.0061 -0.0314,0.01222 -0.048,0.01351 -0.008,6.46e-4 -0.0168,5.9e-5 -0.0248,-0.0023 -0.008,-0.0024 -0.0156,-0.0065 -0.0214,-0.01245 -0.006,-0.0059 -0.01,-0.01355 -0.0122,-0.02159 -0.002,-0.008 -0.003,-0.01653 -0.002,-0.02485 0.001,-0.01665 0.008,-0.03246 0.0139,-0.04798 0.006,-0.01552 0.0125,-0.0313 0.0141,-0.04794 7.9e-4,-0.0083 3.8e-4,-0.0168 -0.002,-0.02487 -0.002,-0.0081 -0.006,-0.01572 -0.0119,-0.02175 -0.006,-0.006 -0.0132,-0.01029 -0.0212,-0.01278 -0.008,-0.0025 -0.0164,-0.0032 -0.0247,-0.0027 -0.0166,9.93e-4 -0.0325,0.0068 -0.0481,0.0128 -0.0155,0.006 -0.0312,0.01225 -0.0478,0.01421 -0.008,9.79e-4 -0.0167,8.53e-4 -0.0249,-9.33e-4 -0.008,-0.0018 -0.016,-0.0053 -0.0224,-0.01057 -0.006,-0.0053 -0.0113,-0.01224 -0.0145,-0.01986 -0.003,-0.0076 -0.005,-0.01588 -0.005,-0.02416 -7e-4,-0.01655 0.004,-0.0329 0.009,-0.04864 0.005,-0.01574 0.0112,-0.03126 0.0144,-0.04752 0.003,-0.01626 0.003,-0.03363 -0.003,-0.04881 -0.007,-0.01629 -0.0216,-0.02878 -0.0381,-0.03533 -0.0165,-0.0066 -0.0349,-0.0075 -0.0525,-0.0048 -0.0352,0.0054 -0.0664,0.02452 -0.0983,0.04015 -0.14625,0.07158 -0.32583,0.07082 -0.47147,-0.002 -0.14563,-0.07282 -0.25399,-0.216029 -0.28448,-0.375974 z"
       style="fill:#00ffff;fill-opacity:1;stroke:#003daa;stroke-width:0.26412666;stroke-linecap:round;stroke-linejoin:miter;stroke-miterlimit:4;stroke-dasharray:0.52825333, 0.52825333;stroke-dashoffset:0;stroke-opacity:1" />
    <path
       transform="matrix(0.72692399,0,0,0.72692399,-29.869114,232.86877)"
       id="path863"
       d="m 126.91937,42.669334 4.53059,25.921436"
       style="fill:none;stroke:#003daa;stroke-width:0.26412666;stroke-linecap:round;stroke-linejoin:miter;stroke-miterlimit:4;stroke-dasharray:0.52825333, 0.52825333;stroke-dashoffset:0;stroke-opacity:1" />
    <text
       id="text866"
       y="295.92767"
       x="9.8117485"
       style="font-style:normal;font-variant:normal;font-weight:normal;font-stretch:normal;font-size:4.23333311px;line-height:1.25;font-family:'Ubuntu Condensed';-inkscape-font-specification:'Ubuntu Condensed, Normal';font-variant-ligatures:normal;font-variant-caps:normal;font-variant-numeric:normal;text-align:start;letter-spacing:0px;word-spacing:0px;writing-mode:lr-tb;text-anchor:start;fill:#000080;fill-opacity:1;stroke:none;stroke-width:0.26458332"
       xml:space="preserve"><tspan
         style="fill:#000080;stroke-width:0.26458332"
         y="295.92767"
         x="9.8117485"
         id="tspan864">convex set</tspan></text>
    <text
       id="text870"
       y="295.90753"
       x="47.928925"
       style="font-style:normal;font-variant:normal;font-weight:normal;font-stretch:normal;font-size:4.23333311px;line-height:1.25;font-family:'Ubuntu Condensed';-inkscape-font-specification:'Ubuntu Condensed, Normal';font-variant-ligatures:normal;font-variant-caps:normal;font-variant-numeric:normal;text-align:start;letter-spacing:0px;word-spacing:0px;writing-mode:lr-tb;text-anchor:start;fill:#aa0000;fill-opacity:1;stroke:none;stroke-width:0.26458332"
       xml:space="preserve"><tspan
         style="fill:#aa0000;stroke-width:0.26458332"
         y="295.90753"
         x="47.928925"
         id="tspan868">non-convex set</tspan></text>
  </g>
</svg>
