<?xml version="1.0" encoding="UTF-8" standalone="no"?>
<!-- Created with Inkscape (http://www.inkscape.org/) -->

<svg
   xmlns:dc="http://purl.org/dc/elements/1.1/"
   xmlns:cc="http://creativecommons.org/ns#"
   xmlns:rdf="http://www.w3.org/1999/02/22-rdf-syntax-ns#"
   xmlns:svg="http://www.w3.org/2000/svg"
   xmlns="http://www.w3.org/2000/svg"
   xmlns:sodipodi="http://sodipodi.sourceforge.net/DTD/sodipodi-0.dtd"
   xmlns:inkscape="http://www.inkscape.org/namespaces/inkscape"
   width="160mm"
   height="90mm"
   viewBox="0 0 160 90"
   version="1.1"
   id="svg8"
   inkscape:version="0.92.4 (5da689c313, 2019-01-14)"
   sodipodi:docname="logistic_regression_binary.svg">
  <defs
     id="defs2" />
  <sodipodi:namedview
     id="base"
     pagecolor="#ffffff"
     bordercolor="#666666"
     borderopacity="1.0"
     inkscape:pageopacity="0.0"
     inkscape:pageshadow="2"
     inkscape:zoom="2.8"
     inkscape:cx="311.05126"
     inkscape:cy="234.7811"
     inkscape:document-units="mm"
     inkscape:current-layer="layer1"
     showgrid="false"
     inkscape:window-width="1920"
     inkscape:window-height="1019"
     inkscape:window-x="1920"
     inkscape:window-y="0"
     inkscape:window-maximized="1" />
  <metadata
     id="metadata5">
    <rdf:RDF>
      <cc:Work
         rdf:about="">
        <dc:format>image/svg+xml</dc:format>
        <dc:type
           rdf:resource="http://purl.org/dc/dcmitype/StillImage" />
        <dc:title />
      </cc:Work>
    </rdf:RDF>
  </metadata>
  <g
     inkscape:label="Layer 1"
     inkscape:groupmode="layer"
     id="layer1"
     transform="translate(0,-207)">
    <path
       style="opacity:0.47600002;fill:none;stroke:#800000;stroke-width:0.26458332px;stroke-linecap:butt;stroke-linejoin:miter;stroke-opacity:1"
       d="m 77.38898,252.36922 0.133635,31.5378"
       id="path1700"
       inkscape:connector-curvature="0" />
    <rect
       style="opacity:0.62599996;fill:#800000;fill-opacity:0.15789472;stroke:#000000;stroke-width:0.377;stroke-miterlimit:4;stroke-dasharray:0.377, 0.377;stroke-dashoffset:0"
       id="rect1660"
       width="49.845764"
       height="25.524239"
       x="54.389347"
       y="226.03995" />
    <rect
       style="opacity:1;fill:#f2e8f1;fill-opacity:1;stroke:#000000;stroke-width:0.15255544;stroke-miterlimit:4;stroke-dasharray:0.15255543, 0.15255543;stroke-dashoffset:0"
       id="rect1658"
       width="23.733744"
       height="7.3120089"
       x="64.685112"
       y="259.83118" />
    <path
       style="opacity:1;fill:#000000;stroke:#000000;stroke-width:0.26458332"
       id="path858"
       d="m 48.184107,211.80542 c 0.196196,0.48671 0.438613,0.95298 0.722294,1.39401 0.349694,0.47799 0.74354,0.92257 1.128167,1.37269 0.226862,0.22871 0.443805,0.47958 0.724157,0.64432 0.05501,0.0253 0.11239,0.0627 0.17481,0.0626 -0.102087,0.0446 -0.204173,0.0892 -0.30626,0.13388 0,0 0.215331,-0.14999 0.215331,-0.14999 v 0 c -0.04118,0.0569 -0.08235,0.11384 -0.123531,0.17076 -0.06409,-0.0143 -0.123598,-0.0425 -0.180706,-0.0746 -0.279431,-0.17037 -0.497866,-0.42205 -0.72517,-0.65367 -0.38454,-0.4517 -0.778816,-0.89731 -1.129625,-1.37587 -0.28485,-0.44245 -0.526679,-0.91068 -0.72798,-1.39713 0,0 0.228513,-0.12696 0.228513,-0.12696 z"
       inkscape:connector-curvature="0" />
    <path
       style="opacity:1;fill:#000000;stroke:#000000;stroke-width:0.26458332"
       id="path860"
       d="m 48.336491,215.56071 c 0.152143,-0.54821 0.435809,-1.04074 0.725922,-1.52504 0.343995,-0.50416 0.666652,-1.02299 1.012438,-1.52577 0.161012,-0.20593 0.266534,-0.44327 0.390594,-0.67077 0.03162,-0.0566 0.06423,-0.1127 0.09892,-0.1675 0,0 0.241959,-0.10613 0.241959,-0.10613 v 0 c -0.03629,0.0538 -0.0688,0.1101 -0.101182,0.16633 -0.126648,0.22775 -0.229701,0.46814 -0.392737,0.67462 -0.348872,0.50099 -0.66875,1.02221 -1.015114,1.52511 -0.289237,0.48153 -0.574799,0.9705 -0.724244,1.51679 0,0 -0.236556,0.11236 -0.236556,0.11236 z"
       inkscape:connector-curvature="0" />
    <path
       style="opacity:1;fill:#000000;stroke:#000000;stroke-width:0.26458332"
       id="path862"
       d="m 51.776974,215.66565 c 0.07929,0.26371 0.146259,0.53062 0.205933,0.79937 0.03891,0.10555 0.05972,0.22409 0.191717,0.19485 0.123251,-0.0833 -0.04092,0.0295 -0.138165,0.0707 -0.02225,0.009 0.03744,-0.0305 0.05561,-0.0464 0.06247,-0.0546 0.106444,-0.11539 0.154746,-0.18261 0.05906,-0.0715 0.09489,-0.15374 0.128659,-0.23885 0,0 0.237956,-0.11052 0.237956,-0.11052 v 0 c -0.03204,0.0874 -0.06531,0.17223 -0.125865,0.24488 -0.135588,0.19298 -0.289126,0.33641 -0.524171,0.42077 -0.140211,0.009 -0.171196,-0.11511 -0.211839,-0.22859 -0.05749,-0.26875 -0.12333,-0.53554 -0.204523,-0.79823 0,0 0.229939,-0.12534 0.229939,-0.12534 z"
       inkscape:connector-curvature="0" />
    <path
       style="opacity:1;fill:#000000;stroke:#000000;stroke-width:0.26458332"
       id="path864"
       d="m 51.188631,214.36897 c 0.148352,-0.1775 0.07395,-0.0884 0.2232,-0.26742 0,0 0.239765,-0.10187 0.239765,-0.10187 v 0 c -0.148966,0.17879 -0.07493,0.0898 -0.222118,0.26696 0,0 -0.240847,0.10233 -0.240847,0.10233 z"
       inkscape:connector-curvature="0" />
    <path
       style="opacity:1;fill:#000000;stroke:#000000;stroke-width:0.26458332"
       id="path866"
       d="m 53.766387,216.60265 c 0.02678,0.32121 0.0016,0.63646 -0.06531,0.95047 -0.04863,0.12284 -0.01693,0.0678 -0.09239,0.1668 0,0 -0.241565,0.10278 -0.241565,0.10278 v 0 c 0.08028,-0.0897 0.04649,-0.0384 0.09824,-0.15576 0.06899,-0.31111 0.0971,-0.62309 0.06933,-0.94206 0,0 0.231693,-0.12223 0.231693,-0.12223 z"
       inkscape:connector-curvature="0" />
    <path
       style="opacity:1;fill:#000000;stroke:#000000;stroke-width:0.26458332"
       id="path884"
       d="m 64.87323,211.8067 c 0.212603,0.60654 0.491942,1.18637 0.772723,1.76355 0.289708,0.52696 0.55149,1.06997 0.872998,1.5788 0.113546,0.15948 0.221038,0.32398 0.312436,0.49728 0.05295,0.10704 0.01783,0.0183 -0.257164,0.12552 0,0 0.22261,-0.14075 0.22261,-0.14075 v 0 c -0.190241,0.17194 -0.148961,0.24171 -0.194422,0.14608 -0.08894,-0.17377 -0.195942,-0.33775 -0.307795,-0.49748 -0.319622,-0.51111 -0.580996,-1.05527 -0.871212,-1.58306 -0.281442,-0.5787 -0.56102,-1.15972 -0.780214,-1.76554 0,0 0.23004,-0.1244 0.23004,-0.1244 z"
       inkscape:connector-curvature="0" />
    <path
       style="opacity:1;fill:#000000;stroke:#000000;stroke-width:0.26458332"
       id="path886"
       d="m 64.135669,216.37482 c 0.346321,-0.58885 0.729951,-1.15495 1.107128,-1.72425 0.40618,-0.58253 0.746723,-1.20303 1.062342,-1.83765 0.115739,-0.23242 0.212865,-0.47228 0.282403,-0.72234 0,0 0.237006,-0.11279 0.237006,-0.11279 v 0 c -0.06987,0.25223 -0.16673,0.49436 -0.283933,0.72856 -0.317611,0.63551 -0.657148,1.2585 -1.064818,1.84219 -0.375645,0.56773 -0.75955,1.13161 -1.100182,1.72129 0,0 -0.239946,0.10499 -0.239946,0.10499 z"
       inkscape:connector-curvature="0" />
    <path
       style="opacity:1;fill:#000000;stroke:#000000;stroke-width:0.26458332"
       id="path888"
       d="m 67.908053,215.85274 c 0.253,-0.2199 0.504114,-0.43987 0.78486,-0.62386 0.431695,-0.28297 0.410187,-0.21415 0.310502,0.16009 -0.120308,0.3569 -0.242993,0.71174 -0.327414,1.07917 -0.05377,0.23253 -0.07873,0.47005 -0.09078,0.708 0.02569,0.17905 0.410075,-0.0847 0.07992,0.0952 0.20392,-0.18813 0.336363,-0.43084 0.443863,-0.68277 0,0 0.236244,-0.10878 0.236244,-0.10878 v 0 c -0.105572,0.25618 -0.239345,0.49775 -0.435605,0.69702 -0.07441,0.0433 -0.48182,0.38118 -0.559393,0.11747 0.01299,-0.23963 0.03702,-0.4791 0.09137,-0.71331 0.0834,-0.36764 0.204116,-0.72306 0.325909,-1.07941 0.01979,-0.0757 0.04538,-0.15006 0.06145,-0.22668 0.03232,-0.15403 -0.121825,0.0183 0.176069,-0.18215 0.02193,-0.0148 -0.0453,0.0273 -0.06795,0.0409 -0.282443,0.18147 -0.535231,0.39894 -0.786387,0.62112 0,0 -0.242663,0.0979 -0.242663,0.0979 z"
       inkscape:connector-curvature="0" />
    <path
       style="opacity:1;fill:#000000;stroke:#000000;stroke-width:0.26458332"
       id="path890"
       d="m 68.948861,214.13387 c -0.01204,0.003 -0.02408,0.006 -0.03612,0.009 0,0 0.241739,-0.0942 0.241739,-0.0942 v 0 c -0.136326,0.0832 -0.272653,0.16639 -0.408982,0.24958 0,0 0.203367,-0.16453 0.203367,-0.16453 z"
       inkscape:connector-curvature="0" />
    <path
       style="opacity:1;fill:#000000;stroke:#000000;stroke-width:0.26458332"
       id="path892"
       d="m 71.360652,216.87486 c -0.112041,0.38846 -0.200221,0.7839 -0.340165,1.16358 -0.031,0.11532 -0.08805,0.21775 -0.149698,0.31855 0,0 -0.240107,0.10583 -0.240107,0.10583 v 0 c 0.06383,-0.0989 0.123621,-0.19869 0.153334,-0.31436 0.143036,-0.37786 0.231529,-0.77255 0.34008,-1.16125 0,0 0.236556,-0.11235 0.236556,-0.11235 z"
       inkscape:connector-curvature="0" />
    <path
       style="opacity:1;fill:#000000;stroke:#000000;stroke-width:0.26458332"
       id="path894"
       d="m 72.826337,215.10367 c 0.286113,-0.0845 0.592183,-0.18003 0.880658,-0.0639 0.207169,0.14815 0.221213,0.35781 0.171678,0.59038 -0.10898,0.31108 -0.331701,0.56034 -0.548357,0.80174 -0.155477,0.15425 -0.319138,0.29751 -0.500478,0.42046 -0.139317,0.0725 -0.02855,0.0313 0.06944,0.0314 0.240035,-0.002 0.480068,-0.005 0.720111,-0.006 0.264285,0.0132 0.511334,-0.0626 0.744562,-0.17972 -0.148942,0.0789 -0.141896,0.0846 -0.0074,-0.026 0,0 0.242408,-0.0981 0.242408,-0.0981 v 0 c -0.199845,0.17379 -0.06259,0.0652 -0.439457,0.28735 -0.236939,0.11316 -0.48591,0.18401 -0.75153,0.17026 -0.24044,0.002 -0.480867,0.004 -0.721299,0.007 -0.07293,-6.1e-4 -0.278122,-3.2e-4 -0.101841,-0.0898 0.183295,-0.12064 0.347639,-0.26251 0.504931,-0.41525 0.216104,-0.23833 0.438346,-0.48389 0.553458,-0.78936 0.05187,-0.2181 0.04694,-0.42061 -0.153675,-0.55775 -0.287216,-0.10511 -0.588884,-0.005 -0.87067,0.0775 0,0 0.207502,-0.15976 0.207502,-0.15976 z"
       inkscape:connector-curvature="0" />
    <path
       style="opacity:1;fill:#000000;stroke:#000000;stroke-width:0.26458332"
       id="path896"
       d="m 82.317701,214.35422 c 0.334938,0.0415 0.67337,0.1188 1.007612,0.0452 0,0 -0.208205,0.15777 -0.208205,0.15777 v 0 c -0.337479,0.0634 -0.676514,-0.0112 -1.0135,-0.052 0,0 0.214093,-0.15095 0.214093,-0.15095 z"
       inkscape:connector-curvature="0" />
    <path
       style="opacity:1;fill:#000000;stroke:#000000;stroke-width:0.26458332"
       id="path898"
       d="m 88.211421,214.85408 c 0.293206,-0.0538 0.138944,-0.0218 0.462235,-0.0988 0,0 -0.205525,0.15674 -0.205525,0.15674 v 0 c -0.325866,0.0766 -0.17022,0.0446 -0.466413,0.0984 0,0 0.209703,-0.15638 0.209703,-0.15638 z"
       inkscape:connector-curvature="0" />
    <path
       style="opacity:1;fill:#000000;stroke:#000000;stroke-width:0.26458332"
       id="path900"
       d="m 93.954875,215.20362 c 0.437449,-0.21724 0.871939,-0.44032 1.313936,-0.6482 0,0 -0.201408,0.16034 -0.201408,0.16034 v 0 c -0.442749,0.20908 -0.878491,0.43236 -1.316549,0.65106 0,0 0.204021,-0.1632 0.204021,-0.1632 z"
       inkscape:connector-curvature="0" />
    <path
       style="opacity:1;fill:#000000;stroke:#000000;stroke-width:0.26458332"
       id="path902"
       d="m 101.23697,212.18973 c 0.28167,0.58077 0.65202,1.10991 0.9938,1.65532 0.41557,0.64691 0.78269,1.32238 1.16227,1.99039 0.18437,0.30712 0.31131,0.64383 0.50765,0.94361 0.13141,0.18585 0.12777,0.10941 -0.24561,0.20543 0,0 0.21865,-0.14471 0.21865,-0.14471 v 0 c -0.16423,0.2038 -0.0932,0.21883 -0.19975,0.0717 -0.19387,-0.30205 -0.32047,-0.63917 -0.50358,-0.94776 -0.37792,-0.66851 -0.74404,-1.34414 -1.16019,-1.99026 -0.34316,-0.54622 -0.71401,-1.07627 -1.00147,-1.65557 0,0 0.22823,-0.12818 0.22823,-0.12818 z"
       inkscape:connector-curvature="0" />
    <path
       style="opacity:1;fill:#000000;stroke:#000000;stroke-width:0.26458332"
       id="path904"
       d="m 100.78329,216.89177 c 0.52859,-0.63458 1.01343,-1.3028 1.50289,-1.96747 0.41289,-0.60304 0.82804,-1.20465 1.23344,-1.81275 0.0826,-0.12822 0.16896,-0.25425 0.24631,-0.38579 0,0 0.24137,-0.10744 0.24137,-0.10744 v 0 c -0.0763,0.13406 -0.168,0.25892 -0.25007,0.38931 -0.40811,0.60868 -0.82587,1.21081 -1.23872,1.81632 -0.48844,0.66292 -0.97126,1.3299 -1.49472,1.96603 0,0 -0.2405,0.10179 -0.2405,0.10179 z"
       inkscape:connector-curvature="0" />
    <path
       style="opacity:1;fill:#000000;stroke:#000000;stroke-width:0.26458332"
       id="path906"
       d="m 104.97876,216.59968 c 0.13937,0.29054 0.19201,0.61577 0.32388,0.90792 0.0181,0.0232 0.0468,0.0767 0.0883,0.073 0.0223,-0.002 0.0802,-0.0402 0.0597,-0.0311 -0.22086,0.0986 -0.15284,0.10078 -0.0311,-0.0492 0.047,-0.058 0.087,-0.12137 0.13042,-0.18205 0,0 0.23789,-0.10337 0.23789,-0.10337 v 0 c -0.1261,0.18235 -0.48787,0.71249 -0.71343,0.4215 -0.13108,-0.29271 -0.18157,-0.61873 -0.32379,-0.90851 0,0 0.22823,-0.12817 0.22823,-0.12817 z"
       inkscape:connector-curvature="0" />
    <path
       style="opacity:1;fill:#000000;stroke:#000000;stroke-width:0.26458332"
       id="path908"
       d="m 104.50834,215.18572 c 0.12967,-0.12878 0.22787,-0.28115 0.32454,-0.43471 0,0 0.23805,-0.10504 0.23805,-0.10504 v 0 c -0.0954,0.1549 -0.19242,0.30861 -0.32057,0.4395 0,0 -0.24202,0.10025 -0.24202,0.10025 z"
       inkscape:connector-curvature="0" />
    <path
       style="opacity:1;fill:#000000;stroke:#000000;stroke-width:0.26458332"
       id="path910"
       d="m 107.35397,217.13719 c 0.0438,0.29031 0.0739,0.57872 0.0563,0.87199 0,0 -0.23347,0.11706 -0.23347,0.11706 v 0 c 0.0203,-0.29161 -0.008,-0.57832 -0.0545,-0.86682 0,0 0.23169,-0.12223 0.23169,-0.12223 z"
       inkscape:connector-curvature="0" />
    <path
       style="opacity:1;fill:#000000;stroke:#000000;stroke-width:0.26458332"
       id="path912"
       d="m 108.89632,215.82282 c -0.19791,0.59726 -0.26181,1.22555 -0.31163,1.8493 -0.0375,0.49647 -0.0602,0.99183 0.0135,1.48539 0.0447,0.26457 0.13403,0.17984 -0.20024,0.28651 0,0 0.23004,-0.12823 0.23004,-0.12823 v 0 c -0.27592,0.2321 -0.20613,0.22899 -0.26074,-0.0363 -0.072,-0.49628 -0.0504,-0.99371 -0.012,-1.49271 0.0493,-0.62487 0.11307,-1.25337 0.30406,-1.85369 0,0 0.23703,-0.11024 0.23703,-0.11024 z"
       inkscape:connector-curvature="0" />
    <path
       style="opacity:1;fill:#000000;stroke:#000000;stroke-width:0.26458332"
       id="path914"
       d="m 108.91205,215.57441 c 0.37076,0.0963 0.73723,0.21341 1.08232,0.38077 0.23356,0.13765 0.40567,0.33531 0.49814,0.5888 0.0824,0.2483 -0.0354,0.40343 -0.22802,0.54435 -0.35422,0.23356 -0.73007,0.32587 -1.14889,0.31348 -0.22906,-0.029 -0.54936,-0.002 -0.67623,-0.23324 0,0 0.22793,-0.13081 0.22793,-0.13081 v 0 c 0.1179,0.21916 0.44838,0.1811 0.65951,0.21129 0.17205,0.002 0.33505,-0.009 0.50402,-0.0451 0.0498,-0.0105 0.0991,-0.0234 0.14767,-0.0383 0.0476,-0.0146 0.0951,-0.0705 0.14062,-0.0502 0.0366,0.0163 -0.0654,0.0461 -0.0981,0.0691 0.18822,-0.13156 0.32276,-0.26776 0.2423,-0.51356 -0.0887,-0.24804 -0.25766,-0.43956 -0.48647,-0.57221 -0.34492,-0.16556 -0.71024,-0.28276 -1.08082,-0.37638 0,0 0.21606,-0.14797 0.21606,-0.14797 z"
       inkscape:connector-curvature="0" />
    <path
       style="opacity:1;fill:#000000;stroke:#000000;stroke-width:0.26458332"
       id="path916"
       d="m 41.338264,208.98539 c 0.607855,0.1909 1.243205,0.24588 1.871059,0.33091 0.445485,0.0638 0.89187,0.12207 1.340608,0.1572 0.07111,0.005 0.14232,0.009 0.213566,0.0123 0,0 -0.213927,0.15385 -0.213927,0.15385 v 0 c -0.07088,-0.004 -0.141719,-0.008 -0.212466,-0.0142 -0.447548,-0.0378 -0.892764,-0.0973 -1.337254,-0.16127 -0.629859,-0.0849 -1.26598,-0.14375 -1.876864,-0.33036 0,0 0.215278,-0.14849 0.215278,-0.14849 z"
       inkscape:connector-curvature="0" />
    <path
       style="opacity:1;fill:#000000;stroke:#000000;stroke-width:0.26458332"
       id="path918"
       d="m 41.338355,208.98547 c 0.0928,0.60124 0.158451,1.20402 0.196978,1.81124 0.04769,0.98203 0.04806,1.96558 0.05153,2.94853 -0.02123,0.91686 0.03641,1.83167 0.08169,2.74678 0.02982,0.6035 0.04477,1.20755 0.0526,1.81168 0.0034,0.30008 0.0036,0.60017 0.0038,0.90026 -1.02e-4,0.16422 -2.64e-4,0.32845 -4.5e-4,0.49267 -0.0071,0.15332 -0.0075,0.29679 0.05801,0.43761 0.04127,0.0472 0.02601,0.17041 0.08176,0.20038 0.306358,0.0283 0.616674,0.0184 0.924235,0.019 0.787511,-0.008 1.573819,0.0618 2.352667,0.17378 0.48117,0.0711 0.959562,0.16982 1.431141,0.28905 0,0 -0.213325,0.14708 -0.213325,0.14708 v 0 c -0.470383,-0.1182 -0.946813,-0.21863 -1.426759,-0.28882 -0.778792,-0.11121 -1.564922,-0.18008 -2.352305,-0.16957 -0.309656,1.7e-4 -0.634341,0.0258 -0.939023,-0.0299 -0.05579,-0.0523 -0.04899,-0.1461 -0.08762,-0.21145 -0.06691,-0.14468 -0.07177,-0.29015 -0.06286,-0.44799 2.9e-5,-0.1643 2.65e-4,-0.3286 8.2e-4,-0.4929 0.0011,-0.30042 0.0014,-0.60086 -0.0011,-0.90128 -0.006,-0.60446 -0.01953,-1.20886 -0.04852,-1.8127 -0.04435,-0.91591 -0.101352,-1.83151 -0.0797,-2.74909 -0.0035,-0.98207 -0.0045,-1.96474 -0.05342,-2.94584 -0.03919,-0.60575 -0.104187,-1.20724 -0.201936,-1.80638 0,0 0.231696,-0.12222 0.231696,-0.12222 z"
       inkscape:connector-curvature="0" />
    <path
       style="opacity:1;fill:#000000;stroke:#000000;stroke-width:0.26458332"
       id="path920"
       d="m 109.32674,209.25871 c 0.74893,-0.009 1.49703,-0.0689 2.24308,-0.13361 0.59575,-0.0682 1.19346,-0.0895 1.79125,-0.0433 0.12179,0.035 0.31068,0.0532 0.38122,0.17641 0.0456,0.0881 0.09,0.17032 0.11244,0.2693 0.0442,0.23897 -0.0203,0.47837 -0.0479,0.71601 -0.0473,0.48019 -0.0384,0.9631 -0.0687,1.44418 -0.0622,0.72944 -0.0897,1.4609 -0.10681,2.19257 -0.0144,0.76309 -0.0148,1.52634 -0.0149,2.28953 0.0221,0.6172 -0.0366,1.2316 -0.0789,1.84648 -0.023,0.35944 -0.0408,0.71928 -0.0494,1.07937 -10e-4,0.0682 -0.003,0.13653 -0.002,0.2048 0.002,0.034 0.001,0.0732 0.001,0.10851 -8e-5,0.0483 -1.2e-4,0.0965 -1.4e-4,0.14481 7.9e-4,0.11867 -0.008,0.0177 -0.28836,0.14997 -0.22919,0.0287 -0.45751,0.0738 -0.6897,0.0961 -0.30554,0.0228 -0.61192,0.031 -0.9182,0.0362 -0.0298,2.7e-4 -0.0596,5.3e-4 -0.0894,7.9e-4 0,0 0.21224,-0.15449 0.21224,-0.15449 v 0 c 0.0297,-2.6e-4 0.0594,-5.2e-4 0.0891,-7.9e-4 0.30546,-0.004 0.61106,-0.0126 0.91566,-0.037 0.23308,-0.0236 0.4616,-0.0745 0.69331,-0.0952 -0.16612,0.14252 -0.16168,0.20713 -0.16027,0.12434 5.3e-4,-0.0483 7.9e-4,-0.0967 7.9e-4,-0.14504 0,-0.0357 0.002,-0.0722 -0.002,-0.10766 -5.3e-4,-0.069 0.002,-0.13792 0.003,-0.20686 0.0103,-0.36108 0.0296,-0.72185 0.0528,-1.08232 0.0424,-0.61457 0.10252,-1.22855 0.0808,-1.84548 10e-4,-0.76354 0.002,-1.52713 0.0157,-2.29058 0.0166,-0.7316 0.0432,-1.46303 0.10436,-2.19248 0.0304,-0.48098 0.0203,-0.96372 0.0654,-1.44399 0.026,-0.23493 0.0905,-0.47128 0.0499,-0.70727 -0.021,-0.0967 -0.0646,-0.17647 -0.1093,-0.26207 -0.0634,-0.11334 -0.25784,-0.12361 -0.36505,-0.15634 -0.59512,-0.0472 -1.1901,-0.0242 -1.78328,0.0427 -0.74857,0.0644 -1.49898,0.12384 -2.25036,0.13618 0,0 0.21165,-0.15377 0.21165,-0.15377 z"
       inkscape:connector-curvature="0" />
    <path
       style="opacity:1;fill:#000000;stroke:#000000;stroke-width:0.377;stroke-miterlimit:4;stroke-dasharray:none"
       id="path1382"
       d="m 60.000071,238.09666 c 0.09246,0.8434 0.05894,1.69164 0.03851,2.53768 -0.04413,1.23842 -0.196262,2.46842 -0.35726,3.69587 -0.143412,0.77147 -0.187115,1.5657 -0.404084,2.32218 -0.02457,0.0526 -0.04913,0.10519 -0.0737,0.15778 0,0 -0.237232,0.10776 -0.237232,0.10776 v 0 c 0.02554,-0.0515 0.05109,-0.10297 0.07663,-0.15446 0.226122,-0.7546 0.266604,-1.55108 0.413444,-2.32232 0.16177,-1.2265 0.315305,-2.45551 0.357952,-3.69321 0.01906,-0.84354 0.05274,-1.68975 -0.04569,-2.53012 0,0 0.231423,-0.12116 0.231424,-0.12116 z"
       inkscape:connector-curvature="0" />
    <path
       style="opacity:1;fill:#000000;stroke:#000000;stroke-width:0.377;stroke-miterlimit:4;stroke-dasharray:none"
       id="path1384"
       d="m 59.441429,238.13079 c 0.421478,-0.26323 0.896291,-0.54353 1.41245,-0.54128 0.07987,3.4e-4 0.158547,0.0195 0.237821,0.0293 0.06497,0.0345 0.137799,0.0572 0.1949,0.10356 0.378405,0.30738 0.287721,0.88431 0.220116,1.29866 -0.08645,0.34801 -0.213901,0.68619 -0.386743,1.00054 -0.04977,0.0778 -0.0144,-0.01 -0.0054,-0.0188 0.03325,-0.0325 0.13053,-0.0347 0.170903,-0.0405 0.253197,0.0209 0.327971,0.2556 0.357992,0.47238 -0.01655,0.6244 -0.583394,0.89826 -1.061686,1.16586 -0.591525,0.26202 -1.22554,0.30129 -1.860158,0.23617 -0.06362,-0.0154 -0.127234,-0.0308 -0.190852,-0.0462 0,0 0.213914,-0.1479 0.213914,-0.1479 v 0 c 0.06264,0.0147 0.125271,0.0294 0.187907,0.0441 0.632119,0.0635 1.263236,0.0192 1.849645,-0.24751 0.346069,-0.1249 0.612352,-0.52309 0.630131,-0.88288 -0.02541,-0.20262 -0.09353,-0.4333 -0.33708,-0.43604 -0.02813,0.005 -0.282622,0.089 -0.195304,0.009 0.177768,-0.31081 0.305886,-0.64835 0.395389,-0.99463 0.06766,-0.39891 0.166724,-0.97495 -0.205835,-1.26945 -0.05548,-0.0438 -0.126115,-0.064 -0.189173,-0.096 -0.07796,-0.008 -0.15547,-0.0259 -0.23387,-0.0251 -0.340845,0.003 -0.693543,0.12741 -0.961174,0.29178 0,0 -0.243901,0.0954 -0.243901,0.0954 z"
       inkscape:connector-curvature="0" />
    <path
       style="opacity:1;fill:#000000;stroke:#000000;stroke-width:0.377;stroke-miterlimit:4;stroke-dasharray:none"
       id="path1386"
       d="m 62.420739,241.53711 c 0.114039,0.38687 0.296395,0.64158 0.680265,0.77945 0.255704,-0.008 0.03646,0.0126 0.288845,-0.0515 0.03331,-0.008 -0.106033,0.0683 -0.0969,0.0352 0.01504,-0.0545 0.08438,-0.076 0.120216,-0.11975 0.09342,-0.11407 0.118497,-0.18573 0.182111,-0.31715 0.133881,-0.45223 -0.01372,-0.77392 -0.362225,-1.06408 -0.05853,-0.0344 -0.114461,-0.0737 -0.175578,-0.10325 -0.197418,-0.0955 -0.398871,-0.1344 -0.615831,-0.0908 -0.461233,0.0927 -0.212608,0.0632 -0.151146,0.0567 -0.05185,0.0558 -0.103703,0.11153 -0.155554,0.1673 0,0 -0.239039,0.10036 -0.239039,0.10036 v 0 c 0.051,-0.0575 0.102001,-0.11499 0.153002,-0.17249 0.132403,-0.0828 0.258034,-0.17762 0.39721,-0.24848 0.333198,-0.16965 0.719725,-0.0354 1.007169,0.15305 0.353707,0.2995 0.507145,0.62965 0.378915,1.09392 -0.179832,0.38589 -0.475889,0.73682 -0.947602,0.70676 -0.386314,-0.1477 -0.574595,-0.40808 -0.6938,-0.79989 0,0 0.229939,-0.12534 0.229939,-0.12534 z"
       inkscape:connector-curvature="0" />
    <path
       style="opacity:1;fill:#000000;stroke:#000000;stroke-width:0.377;stroke-miterlimit:4;stroke-dasharray:none"
       id="path1392"
       d="m 69.590147,239.67374 c 0.387035,-0.0505 0.783891,-0.0481 1.166491,-0.1273 0.03628,-0.0108 0.07257,-0.0216 0.108854,-0.0324 0,0 -0.207545,0.15982 -0.207545,0.15982 v 0 c -0.03652,0.01 -0.07304,0.0201 -0.109559,0.0301 -0.38502,0.0721 -0.781258,0.0771 -1.169891,0.1235 0,0 0.21165,-0.15378 0.21165,-0.15378 z"
       inkscape:connector-curvature="0" />
    <path
       style="opacity:1;fill:#000000;stroke:#000000;stroke-width:0.377;stroke-miterlimit:4;stroke-dasharray:none"
       id="path1394"
       d="m 70.141165,237.8146 c -0.0023,0.58114 -0.0022,1.16229 -0.0019,1.74343 -0.0115,0.28644 0.01432,0.57195 0.03805,0.85696 0,0 -0.229238,0.1192 -0.229238,0.1192 v 0 c -0.02355,-0.28581 -0.05002,-0.57213 -0.03805,-0.85936 2.91e-4,-0.58049 3.97e-4,-1.16098 -0.0019,-1.74146 0,0 0.233099,-0.11877 0.233099,-0.11877 z"
       inkscape:connector-curvature="0" />
    <path
       style="opacity:1;fill:#000000;stroke:#000000;stroke-width:0.377;stroke-miterlimit:4;stroke-dasharray:none"
       id="path1396"
       d="m 78.72777,235.53393 c -0.799484,-0.0679 -1.598605,-0.13754 -2.399686,-0.18492 -0.795884,-0.0413 -1.599084,-0.0717 -2.391391,0.0327 0.117875,-0.11373 -0.600846,0.17956 -0.426396,0.12051 0.261234,-0.0884 0.120732,-0.13106 0.154596,0.10396 0.229918,0.4447 0.690092,0.71905 1.098323,0.98219 0.525258,0.34648 1.093595,0.624 1.616027,0.97405 0.254325,0.19538 0.466526,0.29114 0.313042,0.62862 -0.429132,0.58172 -1.059589,0.97738 -1.642808,1.38804 -0.74996,0.51138 -1.516532,0.998 -2.246266,1.53867 -0.08454,0.087 -0.436211,0.27473 -0.378835,0.45493 0.0201,0.0631 0.130002,0.11546 0.171017,0.14134 0.52176,0.20588 1.083202,0.2724 1.63407,0.35626 0.548822,0.0831 1.103905,0.0964 1.652773,0.17664 0.234845,0.0129 0.120135,0.0101 0.344103,0.01 0,0 -0.211002,0.15324 -0.211002,0.15324 v 0 c -0.224855,-0.002 -0.109678,0.003 -0.345495,-0.0131 -0.548032,-0.08 -1.102446,-0.0943 -1.650234,-0.17862 -0.554344,-0.0847 -1.120828,-0.14989 -1.644092,-0.36269 -0.06003,-0.0396 -0.158114,-0.0854 -0.185501,-0.16448 -0.06751,-0.19482 0.275012,-0.38377 0.373965,-0.47803 0.730274,-0.54273 1.49933,-1.02879 2.250632,-1.54109 0.580552,-0.40856 1.203235,-0.80167 1.639522,-1.37262 0.167743,-0.31889 -0.05281,-0.40822 -0.293174,-0.59694 -0.521708,-0.35028 -1.088217,-0.63003 -1.613857,-0.97489 -0.414975,-0.26785 -0.879459,-0.54647 -1.11372,-0.9983 -0.0053,-0.029 -0.04379,-0.15954 -0.0026,-0.19723 0.216002,-0.19757 0.435544,-0.26523 0.713093,-0.30454 0.792615,-0.097 1.594356,-0.0681 2.389866,-0.0257 0.80338,0.0478 1.604902,0.11716 2.407031,0.18131 0,0 -0.213019,0.15119 -0.213019,0.15119 z"
       inkscape:connector-curvature="0" />
    <path
       style="opacity:1;fill:#000000;stroke:#000000;stroke-width:0.377;stroke-miterlimit:4;stroke-dasharray:none"
       id="path1398"
       d="m 73.317808,244.49923 c -0.116886,0.60239 -0.28953,1.1908 -0.514726,1.76109 -0.250756,0.53573 -0.46931,1.09253 -0.798867,1.58626 -0.182318,0.28548 -0.427137,0.56066 -0.788316,0.58203 -0.17822,0.002 -0.326725,-0.10244 -0.453135,-0.21837 -0.07698,-0.0833 -0.103502,-0.18115 -0.132223,-0.28754 0,0 0.230051,-0.12488 0.230051,-0.12488 v 0 c 0.02688,0.10178 0.05114,0.19496 0.125319,0.27416 0.12447,0.11138 0.267126,0.20878 0.441232,0.20055 0.02723,-0.003 0.05485,-0.003 0.08169,-0.008 0.03046,-0.006 0.109059,-0.05 0.08951,-0.0258 -0.03325,0.0411 -0.08369,0.0935 -0.13537,0.0825 -0.04199,-0.009 0.06115,-0.0603 0.08999,-0.0921 0.115498,-0.12741 0.109598,-0.12963 0.213481,-0.27825 0.334944,-0.48996 0.551415,-1.04802 0.804028,-1.58245 0.226224,-0.56764 0.400021,-1.15432 0.511484,-1.75577 0,0 0.235856,-0.11298 0.235856,-0.11298 z"
       inkscape:connector-curvature="0" />
    <path
       style="opacity:1;fill:#000000;stroke:#000000;stroke-width:0.377;stroke-miterlimit:4;stroke-dasharray:none"
       id="path1400"
       d="m 74.519869,244.36835 c 0.323499,0.009 0.648545,0.0221 0.965928,-0.0485 0.03,-0.009 0.06,-0.0174 0.09,-0.0261 0,0 -0.208004,0.15997 -0.208004,0.15997 v 0 c -0.03016,0.008 -0.06032,0.0163 -0.09048,0.0244 -0.319656,0.0653 -0.646879,0.0527 -0.97154,0.0412 0,0 0.214092,-0.15095 0.214092,-0.15095 z"
       inkscape:connector-curvature="0" />
    <path
       style="opacity:1;fill:#000000;stroke:#000000;stroke-width:0.377;stroke-miterlimit:4;stroke-dasharray:none"
       id="path1402"
       d="m 74.2526,245.7047 c 0.359873,0.0551 0.71615,0.0809 1.077796,0.0375 0,0 -0.208085,0.15483 -0.208085,0.15483 v 0 c -0.363669,0.0393 -0.722135,0.0118 -1.083803,-0.0413 0,0 0.214092,-0.15096 0.214092,-0.15096 z"
       inkscape:connector-curvature="0" />
    <path
       style="opacity:1;fill:#000000;stroke:#000000;stroke-width:0.377;stroke-miterlimit:4;stroke-dasharray:none"
       id="path1406"
       d="m 72.526298,243.34686 c 0.269449,-0.14632 0.127808,-0.0691 0.424854,-0.23164 0,0 -0.201182,0.16216 -0.201182,0.16216 v 0 c -0.298519,0.16341 -0.155911,0.0859 -0.427694,0.23268 0,0 0.204022,-0.1632 0.204022,-0.1632 z"
       inkscape:connector-curvature="0" />
    <path
       style="opacity:1;fill:#000000;stroke:#000000;stroke-width:0.377;stroke-miterlimit:4;stroke-dasharray:none"
       id="path1412"
       d="m 83.576044,237.71763 c -0.36304,0.95357 -0.5838,1.95305 -0.833625,2.94014 -0.31601,1.29336 -0.637074,2.58604 -0.922094,3.88666 -0.100917,0.43113 -0.199369,0.86278 -0.29514,1.29507 -0.0364,0.16432 -0.0549,0.35807 -0.13874,0.50707 -0.0908,0.0267 -0.18161,0.0534 -0.272417,0.0801 0,0 0.22471,-0.13713 0.22471,-0.13713 v 0 c -0.06423,0.0543 -0.128463,0.10857 -0.192696,0.16286 0.09641,-0.13561 0.112668,-0.3441 0.148408,-0.50164 0.09821,-0.43291 0.197307,-0.86558 0.30014,-1.29742 0.286227,-1.30087 0.608598,-2.59373 0.923063,-3.88799 0.24819,-0.98589 0.468109,-1.98325 0.821875,-2.93836 0,0 0.236516,-0.10939 0.236516,-0.10939 z"
       inkscape:connector-curvature="0" />
    <path
       style="opacity:1;fill:#000000;stroke:#000000;stroke-width:0.377;stroke-miterlimit:4;stroke-dasharray:none"
       id="path1414"
       d="m 82.53076,238.62291 c 0.285549,-0.35991 0.630494,-0.69894 1.037609,-0.92055 0.147709,-0.0804 0.301233,-0.14962 0.45185,-0.22443 0.07112,-0.0135 0.140975,-0.0408 0.21336,-0.0405 0.459092,0.002 0.483465,0.60713 0.495938,0.92751 -0.0313,0.52979 -0.188162,1.04182 -0.32815,1.551 -0.04951,0.18863 -0.08375,0.28402 -0.313399,0.27936 -0.02178,-5.3e-4 0.0292,-0.0323 0.04379,-0.0485 0.28829,-0.21756 0.391012,-0.28867 0.501629,0.0376 0.09163,0.33917 0.05158,0.56158 -0.171569,0.83218 -0.520568,0.41893 -1.148824,0.54089 -1.79065,0.62251 -0.356806,-0.004 -0.738164,0.0425 -1.089303,-0.0473 0.102275,-0.0613 0.20455,-0.12254 0.306824,-0.18382 0,0 -0.207549,0.16037 -0.207549,0.16037 v 0 c 0.03917,-0.0421 0.07835,-0.0841 0.117522,-0.12622 0.349843,0.0822 0.724091,0.0459 1.078754,0.043 0.3062,-0.0401 0.610717,-0.0809 0.906828,-0.17296 0.08799,-0.0274 0.171016,-0.0694 0.259331,-0.0957 0.0057,-0.002 2.65e-4,0.0197 0.0055,0.0169 0.06067,-0.0334 0.115292,-0.0768 0.172939,-0.11516 0.22809,-0.26087 0.271402,-0.47128 0.181788,-0.80728 -0.01625,-0.0486 -0.03351,-0.12317 -0.07179,-0.16421 -0.07798,-0.0836 -0.293232,0.0959 0.09098,-0.12991 0.01622,-0.01 -0.03206,0.0197 -0.04809,0.0296 -0.483648,0.42041 -0.295297,0.2397 -0.208947,-0.0184 0.142571,-0.50685 0.300024,-1.01722 0.334256,-1.54512 -0.01601,-0.47114 -0.06758,-1.01136 -0.683096,-0.84455 -0.03415,-0.11975 -0.0048,-0.0524 -0.253474,0.12245 -0.299024,0.21032 -0.569015,0.46815 -0.793972,0.75565 0,0 -0.238926,0.1065 -0.238926,0.1065 z"
       inkscape:connector-curvature="0" />
    <path
       style="opacity:1;fill:#000000;stroke:#000000;stroke-width:0.377;stroke-miterlimit:4;stroke-dasharray:none"
       id="path1424"
       d="m 89.6067,237.52665 c 0.284313,0.59784 0.555644,1.20047 0.803212,1.81468 0.297542,0.67292 0.512027,1.37439 0.70141,2.08382 0.07338,0.25573 0.124426,0.51631 0.175985,0.77693 0,0 -0.231955,0.12374 -0.231955,0.12374 v 0 c -0.04797,-0.26124 -0.09886,-0.5217 -0.170349,-0.77787 -0.187034,-0.70917 -0.400463,-1.41006 -0.697752,-2.08219 -0.24789,-0.6137 -0.518808,-1.2161 -0.808775,-1.81094 0,0 0.228224,-0.12817 0.228224,-0.12817 z"
       inkscape:connector-curvature="0" />
    <path
       style="opacity:1;fill:#000000;stroke:#000000;stroke-width:0.377;stroke-miterlimit:4;stroke-dasharray:none"
       id="path1426"
       d="m 88.479475,243.29777 c 0.646028,-0.71373 1.330113,-1.39245 2.001499,-2.08237 0.636817,-0.65834 1.20432,-1.37154 1.657974,-2.16723 0.08816,-0.1613 0.156588,-0.3313 0.219345,-0.50356 0,0 0.23703,-0.11053 0.23703,-0.11053 v 0 c -0.06332,0.17412 -0.13239,0.34596 -0.221065,0.50918 -0.455716,0.7981 -1.022739,1.51522 -1.661885,2.17592 -0.668838,0.68758 -1.350238,1.36424 -1.992392,2.0768 0,0 -0.240506,0.10179 -0.240506,0.10179 z"
       inkscape:connector-curvature="0" />
    <path
       style="opacity:1;fill:#000000;stroke:#000000;stroke-width:0.377;stroke-miterlimit:4;stroke-dasharray:none"
       id="path1604"
       d="m 60.908122,284.06673 c 0.107471,0.74757 0.247766,1.48899 0.402754,2.22803 0.226822,0.93145 0.423688,1.86964 0.633823,2.80486 0.09851,0.42994 0.189187,0.86176 0.268808,1.29561 0.0033,0.0133 0.02196,0.0337 0.0098,0.0399 -0.08015,0.0406 -0.166086,0.0813 -0.255878,0.0849 -0.0075,2.6e-4 -0.318638,-0.52853 -0.33165,-0.55138 -0.382029,-0.60471 -0.638236,-1.26701 -0.837705,-1.95045 -0.231018,-0.81591 -0.338918,-1.65853 -0.357428,-2.50454 0.02537,-0.58261 0.04821,-1.18989 0.367921,-1.6951 0.372012,-0.389 0.805508,-0.40549 1.286084,-0.28685 0.422616,0.15073 0.648925,0.29097 0.685454,0.75999 -0.05375,0.57553 -0.504923,0.97148 -0.907548,1.3377 -0.226552,0.20907 -0.476356,0.38926 -0.726863,0.56775 0,0 -0.240496,0.0949 -0.240496,0.0949 v 0 c 0.25168,-0.17762 0.502989,-0.35659 0.730144,-0.56576 0.398942,-0.35956 0.850006,-0.74887 0.913461,-1.31469 -0.02821,-0.45842 -0.257344,-0.58878 -0.667758,-0.73228 -0.176842,-0.0416 -0.229476,-0.0637 -0.4114,-0.0683 -0.06247,-0.002 -0.125233,0.002 -0.187196,0.01 -0.05704,0.007 -0.111874,0.0455 -0.168685,0.0365 -0.02732,-0.004 0.0848,-0.0711 0.06366,-0.0532 -0.04345,0.0367 -0.08706,0.0732 -0.130596,0.10975 -0.330319,0.49629 -0.351038,1.10432 -0.379277,1.68348 0.01675,0.8439 0.123748,1.68468 0.354682,2.4984 0.198599,0.68158 0.454236,1.34197 0.83802,1.94332 0.09375,0.16305 0.191984,0.31905 0.293769,0.47671 0.01503,0.0233 0.05674,0.0491 0.04137,0.0722 -0.04935,0.0741 -0.128167,0.12576 -0.204134,0.17216 -0.01217,0.007 -0.0063,-0.0278 -0.0095,-0.0417 -0.07488,-0.43508 -0.164201,-0.86761 -0.26157,-1.29818 -0.208547,-0.93586 -0.404154,-1.87458 -0.632341,-2.80602 -0.156122,-0.73843 -0.296669,-1.47933 -0.411406,-2.22534 0,0 0.231696,-0.12223 0.231696,-0.12223 z"
       inkscape:connector-curvature="0" />
    <path
       style="opacity:1;fill:#000000;stroke:#000000;stroke-width:0.377;stroke-miterlimit:4;stroke-dasharray:none"
       id="path1606"
       d="m 64.753248,285.67366 c -0.0904,0.60537 -0.06825,1.2159 -0.04567,1.82494 0.01709,0.43786 0.03909,0.87551 0.05529,1.3134 0.0043,0.1602 0.05566,0.23672 -0.242361,0.21406 -0.03124,-0.002 -0.01365,-0.0612 -0.02177,-0.0914 -0.01169,-0.0437 -0.02511,-0.0869 -0.03766,-0.13036 -0.127699,-0.4472 -0.207577,-0.90515 -0.30602,-1.35926 -0.0083,-0.13779 -0.175482,-0.51949 -0.0089,-0.63603 0.09242,-0.0646 0.194567,-0.11414 0.291851,-0.17121 0.213403,-0.0568 0.435602,-0.0203 0.651632,-0.0524 0.03136,-0.007 0.06349,-0.0113 0.09409,-0.0212 0.03124,-0.0101 0.115676,-0.0598 0.09069,-0.0385 -0.03756,0.032 -0.08872,0.0993 -0.129583,0.0716 -0.03771,-0.0255 0.06892,-0.0596 0.103386,-0.0893 0,0 0.242038,-0.0987 0.242038,-0.0987 v 0 c -0.171293,0.15944 -0.376393,0.2948 -0.610533,0.33295 -0.214935,0.0256 -0.43756,-0.008 -0.646396,0.0603 0.05149,-0.0324 0.09836,-0.0736 0.15448,-0.0971 0.01704,-0.007 -0.05808,0.0101 -0.06951,0.1349 -0.01476,0.16131 0.0345,0.32673 0.06485,0.48223 0.0976,0.45344 0.177808,0.91053 0.30735,1.35637 0.01225,0.041 0.06589,0.21438 0.0611,0.22091 -0.259646,0.35386 -0.21432,0.18508 -0.221689,0.0318 -0.01331,-0.43875 -0.03327,-0.87726 -0.05027,-1.31588 -0.02281,-0.60953 -0.04588,-1.22002 0.03853,-1.82654 0,0 0.235069,-0.11561 0.235069,-0.11561 z"
       inkscape:connector-curvature="0" />
    <path
       style="opacity:1;fill:#000000;stroke:#000000;stroke-width:0.377;stroke-miterlimit:4;stroke-dasharray:none"
       id="path1608"
       d="m 69.487969,281.24057 c -0.557011,0.5364 -0.795088,1.27552 -0.986369,2.00326 -0.252312,1.02531 -0.210674,2.06578 -0.06964,3.10158 0.14138,0.87094 0.371393,1.72581 0.707967,2.54135 0.171008,0.32767 0.07925,0.17822 0.269409,0.45192 0,0 -0.223303,0.13133 -0.223303,0.13133 v 0 c -0.190632,-0.27812 -0.09876,-0.1266 -0.269893,-0.458 -0.335283,-0.81858 -0.565613,-1.6757 -0.707581,-2.54892 -0.142258,-1.03832 -0.185361,-2.08155 0.0645,-3.11007 0.188802,-0.72966 0.424029,-1.46885 0.972243,-2.0145 0,0 0.24266,-0.0979 0.24266,-0.0979 z"
       inkscape:connector-curvature="0" />
    <path
       style="opacity:1;fill:#000000;stroke:#000000;stroke-width:0.377;stroke-miterlimit:4;stroke-dasharray:none"
       id="path1610"
       d="m 71.58362,284.88625 c 0.01754,0.56823 0.10246,1.12633 0.300863,1.65961 0.0352,0.0657 0.06398,0.13533 0.105598,0.19719 0.03233,0.048 0.07017,0.0935 0.114808,0.13039 0.0357,0.0295 0.364477,0.15375 0.356322,0.0166 -0.0024,-0.0384 -0.07512,0.0162 -0.112683,0.0242 0.225772,-0.29996 0.362897,-0.65836 0.508899,-1.00231 0.06649,-0.16851 0.130173,-0.23406 0.379926,-0.2115 0.03227,0.003 0.190431,0.41083 0.203534,0.44375 0.191725,0.55625 0.240599,1.13892 0.20415,1.7222 -0.05127,0.6689 -0.39391,1.1903 -0.854705,1.65171 -0.457788,0.37576 -0.988198,0.64726 -1.558893,0.79986 -0.09514,0.0249 -0.192255,0.0399 -0.288587,0.059 0,0 0.210042,-0.15879 0.210042,-0.15879 v 0 c 0.09541,-0.0178 0.191164,-0.0341 0.285142,-0.0588 0.413245,-0.11284 0.789093,-0.25349 1.114528,-0.54287 0.461843,-0.45477 0.808905,-0.96965 0.862658,-1.63485 0.0383,-0.57939 -0.0098,-1.15833 -0.201274,-1.71072 -0.0258,-0.0641 -0.103047,-0.26128 -0.138869,-0.33216 -0.01701,-0.0337 -0.07212,-0.0614 -0.05882,-0.0967 0.02738,-0.0727 0.107159,-0.11243 0.159319,-0.16996 0.03434,-0.0379 -0.195307,0.1857 -0.0805,0.13057 -0.148075,0.34578 -0.287174,0.70424 -0.505228,1.01213 -0.01889,0.0134 -0.314084,0.26647 -0.452554,0.28209 -0.251589,0.0284 -0.388879,-0.24248 -0.478713,-0.42563 -0.19835,-0.53604 -0.284308,-1.09581 -0.308065,-1.66624 0,0 0.233098,-0.11877 0.233098,-0.11877 z"
       inkscape:connector-curvature="0" />
    <path
       style="opacity:1;fill:#000000;stroke:#000000;stroke-width:0.377;stroke-miterlimit:4;stroke-dasharray:none"
       id="path1612"
       d="m 75.947986,287.5477 c -0.173996,0.44293 -0.252923,0.9136 -0.310534,1.38358 -0.03033,0.26439 -0.07301,0.54257 0.06825,0.78148 0.08062,0.0788 0.192831,0.10866 0.303972,0.0867 0.03724,-0.007 0.104987,-0.0718 0.108667,-0.0341 0.0039,0.0396 -0.07119,0.0356 -0.106783,0.0534 0.175874,-0.16138 0.08961,-0.0717 0.255608,-0.27204 0,0 0.239051,-0.10188 0.239051,-0.10188 v 0 c -0.163552,0.20407 -0.07893,0.11178 -0.250978,0.27949 -0.240998,0.14052 -0.527481,0.36724 -0.776949,0.11988 -0.142973,-0.24554 -0.10772,-0.52623 -0.07331,-0.79808 0.05762,-0.47141 0.136435,-0.94295 0.305157,-1.38918 0,0 0.237845,-0.1093 0.237845,-0.1093 z"
       inkscape:connector-curvature="0" />
    <path
       style="opacity:1;fill:#000000;stroke:#000000;stroke-width:0.377;stroke-miterlimit:4;stroke-dasharray:none"
       id="path1614"
       d="m 74.915534,286.40515 c 0.210066,-0.15502 0.402749,-0.33067 0.585684,-0.51634 0,0 0.239953,-0.0997 0.239953,-0.0997 v 0 c -0.181517,0.18714 -0.374165,0.36234 -0.581736,0.52062 0,0 -0.243901,0.0954 -0.243901,0.0954 z"
       inkscape:connector-curvature="0" />
    <path
       style="opacity:1;fill:#000000;stroke:#000000;stroke-width:0.377;stroke-miterlimit:4;stroke-dasharray:none"
       id="path1616"
       d="m 78.523673,286.67242 c 0.416393,-0.21073 0.551071,-0.30639 0.873924,-0.55232 0,0 0.241686,-0.0964 0.241686,-0.0964 v 0 c -0.292066,0.22407 -0.597247,0.43522 -0.930675,0.59429 -0.02162,0.0103 0.03931,-0.0274 0.05897,-0.041 0,0 -0.2439,0.0954 -0.2439,0.0954 z"
       inkscape:connector-curvature="0" />
    <path
       style="opacity:1;fill:#000000;stroke:#000000;stroke-width:0.377;stroke-miterlimit:4;stroke-dasharray:none"
       id="path1618"
       d="m 78.515174,287.66355 c 0.217877,-0.0297 0.42305,-0.10489 0.62788,-0.18066 0,0 -0.204181,0.15956 -0.204181,0.15956 v 0 c -0.206812,0.0746 -0.414007,0.14846 -0.6334,0.17748 0,0 0.209701,-0.15638 0.209701,-0.15638 z"
       inkscape:connector-curvature="0" />
    <path
       style="opacity:1;fill:#000000;stroke:#000000;stroke-width:0.377;stroke-miterlimit:4;stroke-dasharray:none"
       id="path1622"
       d="m 85.156655,279.25055 c 0.509834,0.62303 0.990825,1.26625 1.446721,1.9299 0.426926,0.69106 0.795382,1.42143 1.037116,2.19899 0.165256,0.53157 0.186886,0.72405 0.292798,1.27052 0.230349,1.21657 0.130035,2.43812 -0.160149,3.63216 -0.188349,0.5993 -0.08179,0.31401 -0.314508,0.85778 0,0 -0.231378,0.10625 -0.231378,0.10625 v 0 c 0.235858,-0.54144 0.127918,-0.2571 0.318516,-0.85499 0.294386,-1.1904 0.396465,-2.40956 0.167526,-3.62376 -0.105187,-0.54442 -0.126838,-0.73754 -0.291314,-1.26705 -0.240903,-0.77557 -0.609171,-1.50353 -1.035984,-2.1921 -0.457203,-0.66301 -0.939189,-1.30582 -1.454441,-1.92482 0,0 0.225097,-0.13288 0.225097,-0.13288 z"
       inkscape:connector-curvature="0" />
    <path
       style="opacity:0.36199999;fill:none;stroke:#550000;stroke-width:0.26458332px;stroke-linecap:butt;stroke-linejoin:miter;stroke-opacity:1"
       d="M 53.367122,217.8227 89.6067,237.52665"
       id="path1682"
       inkscape:connector-curvature="0"
       sodipodi:nodetypes="cc" />
    <path
       style="opacity:0.36199999;fill:none;stroke:#550000;stroke-width:0.26458332px;stroke-linecap:butt;stroke-linejoin:miter;stroke-opacity:1"
       d="M 68.909641,217.17681 89.6067,237.52665"
       id="path1684"
       inkscape:connector-curvature="0"
       sodipodi:nodetypes="cc" />
    <path
       style="opacity:0.36199999;fill:none;stroke:#550000;stroke-width:0.26458332px;stroke-linecap:butt;stroke-linejoin:miter;stroke-opacity:1"
       d="M 103.65508,216.98448 89.6067,237.52665"
       id="path1688"
       inkscape:connector-curvature="0"
       sodipodi:nodetypes="cc" />
    <path
       style="opacity:1;fill:#000000;fill-opacity:1;stroke:none;stroke-width:0.377;stroke-miterlimit:4;stroke-dasharray:0.377, 0.377;stroke-dashoffset:0"
       id="path1060"
       d="m 68.104327,265.11794 c 0.37301,0.001 0.746022,5.3e-4 1.119032,5.3e-4 0.314788,-2.6e-4 0.629578,-8e-5 0.944369,-10e-5 0.327816,1.1e-4 0.655635,-7e-5 0.983451,7e-5 0.278188,-0.009 0.558602,0.019 0.834985,-0.0175 0.26951,-0.0397 0.534025,-0.11211 0.791226,-0.20118 0.206952,-0.0791 0.424791,-0.11915 0.627208,-0.2092 -0.193201,0.15059 0.463368,-0.23562 0.242769,-0.11332 -0.320699,0.17779 -0.05496,0.0175 0.0072,-0.0202 0.150516,-0.10511 0.272259,-0.24477 0.398732,-0.37649 0.180557,-0.19281 0.375894,-0.37167 0.547505,-0.57258 0.160676,-0.16726 0.296736,-0.35569 0.44363,-0.53469 0.08952,-0.12007 0.197794,-0.21949 0.309409,-0.31756 0.125383,-0.10442 0.268261,-0.16909 0.412231,-0.24925 0.05429,-0.0302 -0.216307,0.12231 -0.163285,0.0899 0.184547,-0.11277 0.22094,-0.13104 0.356807,-0.20297 0.141152,-0.0768 0.294251,-0.1285 0.439941,-0.19672 0.195985,-0.0693 0.378494,-0.1659 0.579421,-0.22164 0.185428,-0.0473 0.374037,-0.0468 0.556546,-0.10543 0.159398,-0.0584 0.325972,-0.0745 0.493906,-0.0858 0.214066,-0.009 0.42845,-0.008 0.64267,-0.008 0.256987,2.6e-4 0.513972,7.9e-4 0.770959,7.9e-4 0.22053,-0.0385 0.439354,-0.0841 0.661868,-0.11062 0.245174,-0.0233 0.491789,-0.0221 0.737807,-0.0232 0.293293,-7.9e-4 0.586589,-1.2e-4 0.879882,1.4e-4 0.265552,1.8e-4 0.531101,5.3e-4 0.79665,2.4e-4 0.200816,-1.1e-4 0.40163,-2e-5 0.602443,-1.8e-4 0.190363,10e-5 0.380725,0 0.571087,7e-5 0.104908,-5e-5 0.209815,-1.9e-4 0.314722,-5.3e-4 0,0 -0.213677,0.15525 -0.213677,0.15525 v 0 c -0.104413,-2.7e-4 -0.208825,-5.3e-4 -0.313235,-5.3e-4 -0.190431,7e-5 -0.38086,-2e-5 -0.571289,8e-5 -0.20063,-1.6e-4 -0.401261,-6e-5 -0.601892,-2.3e-4 -0.265414,-2.7e-4 -0.530828,-1.8e-4 -0.796245,-5.3e-4 -0.293206,-2.6e-4 -0.586412,-10e-4 -0.879618,-1.3e-4 -0.245727,0.002 -0.492133,0.001 -0.736849,0.0263 -0.222689,0.0281 -0.441465,0.0767 -0.663509,0.10783 -0.25695,-5.2e-4 -0.513897,-5.2e-4 -0.770847,-7.9e-4 -0.214088,10e-5 -0.428384,-0.002 -0.642255,0.01 -0.167047,0.0121 -0.331878,0.033 -0.490334,0.0906 -0.182771,0.0541 -0.372763,0.053 -0.556379,0.10465 -0.198874,0.0592 -0.382791,0.15419 -0.577464,0.22497 -0.147415,0.0647 -0.296817,0.12275 -0.439163,0.1983 -0.02106,0.0114 -0.08358,0.0467 -0.06318,0.0342 0.05139,-0.0316 0.208068,-0.12211 0.15621,-0.0913 -0.88002,0.52265 0.215897,-0.14589 -0.250569,0.15523 -0.107778,0.1009 -0.224766,0.1913 -0.311364,0.31427 -0.14818,0.17838 -0.282636,0.36871 -0.444426,0.53532 -0.16896,0.20325 -0.366053,0.38056 -0.546161,0.57385 -0.126915,0.13241 -0.249031,0.27179 -0.395703,0.38298 -0.231547,0.13312 -0.446259,0.30136 -0.70092,0.39073 -0.20342,0.0862 -0.4214,0.12696 -0.627544,0.20672 -0.259062,0.0863 -0.523561,0.16055 -0.794639,0.197 -0.277363,0.0308 -0.557515,0.007 -0.836161,0.0145 -0.327884,1.4e-4 -0.655769,-3e-5 -0.983654,8e-5 -0.314698,-3e-5 -0.629396,1.5e-4 -0.944092,-10e-5 -0.373398,-1.7e-4 -0.746797,-5.3e-4 -1.120193,5.3e-4 0,0 0.21195,-0.15399 0.21195,-0.15399 z"
       inkscape:connector-curvature="0" />
    <path
       style="opacity:1;fill:#000000;stroke:#000000;stroke-width:0.377;stroke-miterlimit:4;stroke-dasharray:none"
       id="path1474"
       d="m 87.006942,241.91522 c -0.240837,0.48529 -0.373192,1.01662 -0.480947,1.54494 -0.122959,0.61888 -0.217262,1.24336 -0.311039,1.86732 -0.06119,0.24523 -0.0056,0.6182 -0.224914,0.79436 -0.107447,0.048 -0.210539,0.10723 -0.322342,0.14394 -0.180059,0.0591 -0.577993,-0.12316 -0.743619,-0.193 -0.2559,-0.15203 -0.477356,-0.25704 -0.507974,-0.57738 0.0084,-0.0475 0.0168,-0.0951 0.02519,-0.1426 0,0 0.235005,-0.11421 0.235005,-0.11421 v 0 c -0.0093,0.0454 -0.01871,0.0907 -0.02805,0.13613 0.0204,0.30709 0.250193,0.41014 0.492517,0.55336 0.154514,0.064 0.313031,0.12907 0.477353,0.16432 0.04731,0.0101 0.09554,0.0166 0.143841,0.0195 0.03836,0.002 0.121161,-0.042 0.115213,-0.004 -0.0089,0.0565 -0.08787,0.0733 -0.13181,0.10998 0.238871,-0.13536 0.175175,-0.55113 0.237799,-0.7766 0.0947,-0.62437 0.18964,-1.24922 0.311314,-1.86888 0.106381,-0.52864 0.236694,-1.06121 0.47461,-1.54784 0,0 0.237847,-0.1093 0.237847,-0.1093 z"
       inkscape:connector-curvature="0" />
    <path
       style="opacity:1;fill:#000000;stroke:#000000;stroke-width:0.377;stroke-miterlimit:4;stroke-dasharray:none"
       id="path1476"
       d="m 86.750714,240.40977 c 0.181623,-0.0497 0.366032,-0.0881 0.549992,-0.12784 0,0 -0.207195,0.1574 -0.207195,0.1574 v 0 c -0.184195,0.04 -0.368822,0.0788 -0.550297,0.1302 0,0 0.2075,-0.15976 0.2075,-0.15976 z"
       inkscape:connector-curvature="0" />
    <path
       style="opacity:1;fill:#000000;stroke:#000000;stroke-width:0.377;stroke-miterlimit:4;stroke-dasharray:none"
       id="path1486"
       d="m 92.233914,242.50552 c 0.196353,-0.0242 0.520277,-0.25525 0.688707,-0.0796 0.0105,0.25281 -0.18155,0.50216 -0.2937,0.7233 -0.0996,0.20365 -0.168685,0.41886 -0.213786,0.64053 -0.0033,-0.03 -0.01138,0.11956 -0.01378,0.0895 -0.0016,-0.0193 0.05554,-0.0529 0.03851,-0.0436 -0.05976,0.0326 -0.120496,0.0634 -0.180742,0.095 0.19935,-0.11806 0.368518,-0.27393 0.537608,-0.43088 0,0 0.240417,-0.0986 0.240417,-0.0986 v 0 c -0.167417,0.15716 -0.332677,0.31767 -0.533657,0.43158 -0.09637,0.0592 -0.383343,0.32531 -0.325169,0.0718 0.0453,-0.22391 0.113422,-0.4417 0.213016,-0.64791 0.110173,-0.21895 0.277003,-0.44953 0.306883,-0.69313 -0.15995,-0.15081 -0.491573,0.088 -0.671807,0.10179 0,0 0.2075,-0.15976 0.2075,-0.15976 z"
       inkscape:connector-curvature="0" />
    <path
       style="opacity:1;fill:#000000;stroke:#000000;stroke-width:0.377;stroke-miterlimit:4;stroke-dasharray:none"
       id="path1488"
       d="m 92.778991,241.11758 c 0.20178,-0.18682 0.420657,-0.35304 0.638047,-0.5209 0,0 0.240687,-0.0961 0.240687,-0.0961 v 0 c -0.216507,0.16704 -0.434607,0.33209 -0.636717,0.51677 0,0 -0.242017,0.10024 -0.242017,0.10024 z"
       inkscape:connector-curvature="0" />
    <path
       style="opacity:1;fill:#000000;stroke:#000000;stroke-width:0.377;stroke-miterlimit:4;stroke-dasharray:none"
       id="path1490"
       d="m 94.479212,243.61145 c -0.28222,0.48659 -0.531787,0.99111 -0.809697,1.48041 -0.12781,0.22035 -0.0677,0.11763 -0.180147,0.30832 0,0 -0.23858,0.10587 -0.23858,0.10587 v 0 c 0.11411,-0.19101 0.0532,-0.0881 0.18249,-0.30886 0.279187,-0.48779 0.529007,-0.99111 0.807004,-1.47923 0,0 0.23893,-0.10651 0.23893,-0.10651 z"
       inkscape:connector-curvature="0" />
    <path
       style="opacity:1;fill:#000000;stroke:#000000;stroke-width:0.377;stroke-miterlimit:4;stroke-dasharray:none"
       id="path1492"
       d="m 96.781421,242.42149 c -0.1343,0.59938 -0.24224,1.20375 -0.34284,1.80959 -0.1161,0.69438 -0.283828,1.37768 -0.459458,2.05883 -0.12261,0.4701 -0.26076,0.95764 -0.638647,1.28505 -0.393967,0.29673 -0.820644,0.32519 -1.291704,0.33934 -0.334727,-0.0271 -0.515317,-0.0812 -0.537474,-0.44089 0,0 0.232337,-0.11986 0.232337,-0.11986 v 0 c 0.0133,0.34755 0.19827,0.3838 0.515337,0.40702 0.18692,-0.006 0.374327,-0.0117 0.559507,-0.0409 0.0632,-0.01 0.12649,-0.0208 0.18829,-0.0375 0.0566,-0.0152 0.107827,-0.0517 0.166157,-0.0579 0.0292,-0.003 -0.0493,0.0321 -0.0739,0.0482 0.387427,-0.31462 0.524777,-0.80487 0.648257,-1.27175 0.1759,-0.68058 0.34525,-1.36296 0.460867,-2.05698 0.0998,-0.60557 0.208951,-1.20917 0.337411,-1.8093 0,0 0.23585,-0.11298 0.23585,-0.11298 z"
       inkscape:connector-curvature="0" />
    <path
       style="opacity:1;fill:#000000;stroke:#000000;stroke-width:0.377;stroke-miterlimit:4;stroke-dasharray:none"
       id="path1494"
       d="m 96.792631,241.15249 c 0.288587,-0.13708 0.139607,-0.0623 0.446047,-0.22602 0,0 -0.20127,0.16183 -0.20127,0.16183 v 0 c -0.308887,0.16345 -0.15839,0.089 -0.450617,0.22533 0,0 0.20584,-0.16114 0.20584,-0.16114 z"
       inkscape:connector-curvature="0" />
    <path
       style="opacity:1;fill:#000000;fill-opacity:1;stroke:none;stroke-width:0.377;stroke-miterlimit:4;stroke-dasharray:0.377, 0.377;stroke-dashoffset:0"
       id="path925"
       d="m 55.28733,215.33471 c -0.154017,0.47251 -0.272764,0.95709 -0.378232,1.44269 -0.02766,0.18249 -0.07877,0.35961 -0.131046,0.53612 0,0 -0.521883,-0.0154 -0.521883,-0.0154 v 0 c 0.05441,-0.17483 0.107069,-0.35043 0.135512,-0.53185 0.106624,-0.48604 0.22678,-0.97029 0.372091,-1.44615 0,0 0.523558,0.0146 0.523558,0.0146 z"
       inkscape:connector-curvature="0" />
    <path
       style="opacity:1;fill:#000000;fill-opacity:1;stroke:none;stroke-width:0.377;stroke-miterlimit:4;stroke-dasharray:0.377, 0.377;stroke-dashoffset:0"
       id="path927"
       d="m 77.839093,243.53793 c -0.286192,0.51154 -0.505881,1.06147 -0.703612,1.61262 -0.160295,0.47254 -0.324506,0.94353 -0.493265,1.41308 0,0 -0.517557,-0.018 -0.517557,-0.018 v 0 c 0.171545,-0.46894 0.338807,-0.93922 0.497694,-1.41267 0.196329,-0.55354 0.418198,-1.10344 0.694264,-1.62218 0,0 0.522476,0.0272 0.522476,0.0272 z"
       inkscape:connector-curvature="0" />
    <path
       style="opacity:1;fill:#000000;fill-opacity:1;stroke:none;stroke-width:0.377;stroke-miterlimit:4;stroke-dasharray:0.377, 0.377;stroke-dashoffset:0"
       id="path941"
       d="m 80.834414,282.87695 c 0.263097,-0.15349 0.538279,-0.28502 0.814483,-0.41295 0.201951,-0.10561 0.659627,-0.23067 0.672526,0.0949 0.0078,0.55886 -0.01923,1.11639 -0.05052,1.67414 -0.04213,1.06557 -0.119173,2.12917 -0.172124,3.19419 -0.02495,0.66042 -0.03191,1.3197 -0.113946,1.97602 -0.02596,0.19808 -0.01368,0.10498 -0.0368,0.27931 0,0 -0.523406,-0.007 -0.523406,-0.007 v 0 c 0.02548,-0.17402 0.01209,-0.0811 0.04002,-0.27887 0.09072,-0.65417 0.101457,-1.31256 0.12923,-1.97176 0.05527,-1.06488 0.132443,-2.12849 0.168376,-3.1943 0.02735,-0.55608 0.0511,-1.11191 0.03376,-1.66879 -0.0016,-0.0256 -0.03017,-0.0722 -0.0049,-0.077 0.929474,-0.17367 0.569767,-0.0434 0.3794,0.0393 -0.277416,0.12431 -0.554096,0.25279 -0.815811,0.40797 0,0 -0.520293,-0.0549 -0.520293,-0.0549 z"
       inkscape:connector-curvature="0" />
    <path
       style="opacity:1;fill:#000000;fill-opacity:1;stroke:none;stroke-width:0.377;stroke-miterlimit:4;stroke-dasharray:0.377, 0.377;stroke-dashoffset:0"
       id="path943"
       d="m 81.101667,289.7428 c -0.107701,-0.005 -0.228994,0.0389 -0.323106,-0.0136 -0.06903,-0.0386 0.156821,-0.021 0.234476,-0.0359 0.365895,-0.0701 0.684467,-0.20117 1.011134,-0.37655 0,0 0.51344,0.0553 0.51344,0.0553 v 0 c -0.639762,0.35377 -1.209074,0.48932 -1.952728,0.45266 0,0 0.516784,-0.0818 0.516784,-0.0818 z"
       inkscape:connector-curvature="0" />
    <g
       id="g885"
       transform="translate(-33.167411,15.119048)">
      <path
         style="opacity:1;fill:#000000;stroke:#000000;stroke-width:0.26458332"
         id="path879"
         d="m 108.89632,215.82282 c -0.19791,0.59726 -0.26181,1.22555 -0.31163,1.8493 -0.0375,0.49647 -0.0602,0.99183 0.0135,1.48539 0.0447,0.26457 0.13403,0.17984 -0.20024,0.28651 0,0 0.23004,-0.12823 0.23004,-0.12823 v 0 c -0.27592,0.2321 -0.20613,0.22899 -0.26074,-0.0363 -0.072,-0.49628 -0.0504,-0.99371 -0.012,-1.49271 0.0493,-0.62487 0.11307,-1.25337 0.30406,-1.85369 0,0 0.23703,-0.11024 0.23703,-0.11024 z"
         inkscape:connector-curvature="0" />
      <path
         style="opacity:1;fill:#000000;stroke:#000000;stroke-width:0.26458332"
         id="path881"
         d="m 108.91205,215.57441 c 0.37076,0.0963 0.73723,0.21341 1.08232,0.38077 0.23356,0.13765 0.40567,0.33531 0.49814,0.5888 0.0824,0.2483 -0.0354,0.40343 -0.22802,0.54435 -0.35422,0.23356 -0.73007,0.32587 -1.14889,0.31348 -0.22906,-0.029 -0.54936,-0.002 -0.67623,-0.23324 0,0 0.22793,-0.13081 0.22793,-0.13081 v 0 c 0.1179,0.21916 0.44838,0.1811 0.65951,0.21129 0.17205,0.002 0.33505,-0.009 0.50402,-0.0451 0.0498,-0.0105 0.0991,-0.0234 0.14767,-0.0383 0.0476,-0.0146 0.0951,-0.0705 0.14062,-0.0502 0.0366,0.0163 -0.0654,0.0461 -0.0981,0.0691 0.18822,-0.13156 0.32276,-0.26776 0.2423,-0.51356 -0.0887,-0.24804 -0.25766,-0.43956 -0.48647,-0.57221 -0.34492,-0.16556 -0.71024,-0.28276 -1.08082,-0.37638 0,0 0.21606,-0.14797 0.21606,-0.14797 z"
         inkscape:connector-curvature="0" />
    </g>
  </g>
</svg>
